<svg width="92" height="97" viewBox="0 0 92 97" fill="none" xmlns="http://www.w3.org/2000/svg">
  <g clip-path="url(#clip0_301_7946)">
    <g clip-path="url(#clip1_301_7946)">
      <g opacity="0.5">
        <path d="M31.0657 110.433C28.26 110.807 22.9351 111.082 18.7891 108.713L18.6112 108.612L11.9662 104.201C9.53023 102.586 7.86811 100.118 7.2888 97.2502C6.70843 94.3842 7.2791 91.4635 8.89587 89.0262L16.0051 78.3085C17.7538 75.6743 20.5529 73.926 23.6829 73.5082C26.31 73.1575 28.9732 73.7712 31.1828 75.2379L35.5896 78.1618C37.8564 75.7873 39.9698 73.1996 42.2884 69.7043C45.1814 65.3437 47.0858 61.5329 48.659 57.6204L44.6361 54.9518C39.6051 51.6118 38.2278 44.8036 41.5655 39.7741L48.6749 29.0577C50.4213 26.425 53.2202 24.6755 56.3527 24.2574C58.9215 23.9144 61.5257 24.494 63.7063 25.8916L65.6031 27.0242L70.6385 30.444L70.8095 30.6041C73.2162 32.2695 75.0194 35.2108 76.1703 39.3506C76.9737 42.2388 77.3502 45.3372 77.1545 47.4365C76.3875 55.6102 74.1671 68.2874 63.7695 83.9599C53.2783 99.7735 42.9128 105.907 36.0289 109.144C34.4842 109.87 32.4774 110.247 31.0648 110.435L31.0657 110.433Z" fill="#0091FF"/>
        <path d="M57.1643 30.3289C58.2805 30.1799 59.4535 30.4189 60.4665 31.0897L62.3082 32.1901L66.8055 35.2454C66.924 35.3556 67.0748 35.4752 67.2754 35.6079C69.9882 37.4079 71.2849 44.4087 71.055 46.8636C70.3155 54.7518 68.1395 66.2895 58.6649 80.5692C49.1905 94.8501 39.9566 100.523 33.4228 103.596C32.8389 103.87 31.6735 104.169 30.2561 104.359C27.6107 104.712 24.0871 104.681 21.8294 103.392L15.3553 99.0947C13.1363 97.6218 12.5305 94.6307 14.002 92.4105L21.1114 81.6941C21.9132 80.4868 23.1633 79.7575 24.4945 79.5798C25.6107 79.4308 26.7837 79.6698 27.7969 80.3418L36.3392 86.0094C40.2316 82.3758 43.6004 78.8108 47.3946 73.0887C51.747 66.5293 54.0584 61.0534 56.0954 55.1986L48.0227 49.8441C45.8022 48.3703 45.1975 45.3777 46.6704 43.1586L53.7797 32.4422C54.5804 31.2351 55.8316 30.5043 57.1629 30.3279M55.5442 18.1829C50.6592 18.835 46.2948 21.5637 43.5706 25.6694L36.4612 36.3858C35.1903 38.3022 34.3302 40.416 33.9067 42.6706C33.4992 44.8414 33.5137 47.0424 33.9526 49.2103C34.3904 51.3783 35.2317 53.4121 36.4518 55.2544C37.6517 57.066 39.1622 58.6111 40.947 59.8502C39.9119 61.9218 38.6951 64.04 37.1852 66.3147C36.2538 67.7185 35.3677 68.9518 34.4906 70.0777C31.0604 67.8295 26.9397 66.8911 22.8745 67.4338C17.993 68.0854 13.6296 70.8114 10.9049 74.9135L10.9028 74.9163L10.9006 74.919L3.79128 85.6354C2.52035 87.5519 1.6604 89.6669 1.23692 91.9214C0.829622 94.0935 0.845093 96.2931 1.28422 98.4622C1.72318 100.63 2.56456 102.664 3.78463 104.506C5.05119 106.419 6.66605 108.033 8.58249 109.304L15.0538 113.599L15.3944 113.825L15.7504 114.029C18.3468 115.513 21.4177 116.412 24.8781 116.701C27.6834 116.934 30.2339 116.723 31.8784 116.503C34.5554 116.146 36.8286 115.533 38.6375 114.684C43.8265 112.243 48.4534 109.305 52.7827 105.702C58.5837 100.873 63.9996 94.6955 68.8779 87.3428C73.7181 80.0482 77.3934 72.5556 79.8017 65.0739C81.5882 59.5271 82.6853 54.1044 83.2571 48.0064C83.5224 45.1685 83.0801 41.3186 82.0762 37.7056C80.5884 32.3572 78.1109 28.3747 74.7049 25.8538L74.4746 25.6385L73.6929 25.1074L69.1956 22.0522L68.9006 21.8518L68.5944 21.6689L66.9246 20.6716C63.5417 18.537 59.5159 17.6527 55.5442 18.1829Z" fill="#EDEDED"/>
      </g>
      <g opacity="0.5">
        <path d="M30.6603 107.396C25.0186 108.15 21.7533 106.878 20.3092 106.052L20.2208 106.001L13.6612 101.647C11.9062 100.484 10.7096 98.7061 10.2919 96.6417C9.87414 94.5773 10.2857 92.474 11.4496 90.7189L18.5589 80.0025C19.8189 78.1061 21.834 76.8468 24.0895 76.5458C25.9806 76.2933 27.899 76.7357 29.49 77.7917L35.9951 82.1081C39.0945 79.081 41.7961 75.9908 44.8412 71.3997C48.4475 65.9647 50.5786 61.3609 52.4027 56.4296L46.3304 52.4016C42.7074 49.9961 41.7153 45.0922 44.1195 41.4693L51.2289 30.7528C52.4876 28.8566 54.5026 27.5961 56.7593 27.2949C58.6237 27.046 60.5139 27.4724 62.0919 28.4955L63.9564 29.609L68.7227 32.8458L68.8865 32.9983C68.8947 33.0046 68.9181 33.0225 68.9616 33.0513C73.1773 35.8499 74.3641 44.3797 74.1059 47.1499C73.3704 54.9943 71.2348 67.1682 61.2178 82.2645C51.1504 97.438 41.2777 103.289 34.7265 106.37C33.4737 106.959 31.6419 107.267 30.6617 107.398L30.6603 107.396Z" fill="#0091FF"/>
        <path d="M57.164 30.3289C58.2803 30.1799 59.4532 30.419 60.4662 31.0898L62.308 32.1902L66.8052 35.2454C66.9238 35.3556 67.0745 35.4752 67.2752 35.6079C69.9879 37.408 71.2846 44.4087 71.0548 46.8636C70.3152 54.7518 68.1392 66.2895 58.6646 80.5692C49.1902 94.8502 39.9563 100.523 33.4226 103.596C32.8386 103.87 31.6732 104.169 30.2558 104.359C27.6104 104.712 24.0868 104.681 21.8292 103.392L15.3551 99.0947C13.136 97.6219 12.5303 94.6307 14.0017 92.4106L21.1111 81.6941C21.913 80.4869 23.1631 79.7575 24.4943 79.5798C25.6105 79.4308 26.7834 79.6698 27.7966 80.3418L36.3389 86.0095C40.2313 82.3758 43.6001 78.8109 47.3943 73.0887C51.7467 66.5294 54.0581 61.0534 56.0952 55.1987L48.0224 49.8442C45.802 48.3703 45.1973 45.3777 46.6701 43.1587L53.7795 32.4422C54.5801 31.2351 55.8313 30.5044 57.1627 30.3279M56.352 24.255C53.2196 24.6731 50.4207 26.4226 48.673 29.0554L41.5636 39.7719C38.2261 44.8026 39.6034 51.6108 44.633 54.9498L48.6573 57.6194C47.084 61.5306 45.1797 65.3427 42.2866 69.7021C39.9681 73.1986 37.8545 75.7851 35.5867 78.1609L31.1813 75.2381C28.9718 73.7727 26.3073 73.1579 23.6814 73.5084C20.5502 73.9264 17.7523 75.6745 16.0057 78.306L8.89435 89.0264C5.55678 94.0571 6.93533 100.865 11.966 104.203L18.4388 108.499L18.6096 108.612L18.7875 108.713C22.9336 111.082 28.2585 110.808 31.0642 110.433C32.4755 110.245 34.4836 109.868 36.0271 109.141C40.8032 106.895 44.8808 104.306 48.8584 100.995C54.2022 96.5473 59.2188 90.814 63.7677 83.9577C68.297 77.1312 71.7285 70.1458 73.9647 63.1989C75.6102 58.0875 76.6229 53.0791 77.1529 47.4367C77.3497 45.336 76.972 42.2377 76.1686 39.3496C75.0177 35.2098 73.2145 32.2685 70.8066 30.6033L70.6356 30.4431L70.2454 30.1775L65.7481 27.1223L65.6012 27.022L65.4482 26.9312L63.7045 25.8894C61.5252 24.4928 58.921 23.9133 56.352 24.255Z" fill="#DDDDDD"/>
      </g>
      <path d="M27.797 80.3431C25.5767 78.8704 22.5856 79.4761 21.1115 81.6954L14.0022 92.4118C12.5293 94.6309 13.1352 97.6233 15.3555 99.0959L21.8296 103.393C25.2959 105.374 28.0803 104.664 28.128 104.651C29.2972 104.269 31.7479 104.384 33.423 103.597C39.9568 100.525 49.1907 94.8514 58.6651 80.5704C68.1395 66.2895 70.3157 54.753 71.0552 46.8648C71.2851 44.4099 70.3119 41.741 70.2705 40.2729C70.2666 40.2253 69.9871 37.4093 67.2744 35.6093C67.0737 35.4766 66.923 35.357 66.8045 35.2468L62.3072 32.1916L60.4654 31.0912C58.2464 29.6183 55.2529 30.2256 53.7801 32.4447L46.6707 43.1611C45.1979 45.3802 45.8026 48.3727 48.023 49.8466L56.0958 55.2011C54.0587 61.0558 51.7472 66.5306 47.3949 73.0912C43.6007 78.8133 40.2319 82.3783 36.3395 86.0119L27.7972 80.3443L27.797 80.3431Z" fill="#0091FF"/>
      <g opacity="0.05">
        <path d="M20.8149 102.719L21.8294 103.392C25.2957 105.373 28.0801 104.663 28.1279 104.65C29.297 104.268 31.7478 104.383 33.4228 103.596C39.9566 100.523 49.1905 94.8502 58.6649 80.5692C68.1393 66.2883 70.3155 54.7518 71.055 46.8637C71.2849 44.4087 70.3117 41.7398 70.2703 40.2718C70.2675 40.2511 70.2143 39.7044 69.9302 38.9462C70.9327 71.073 44.4982 92.5937 20.8149 102.719Z" fill="black"/>
      </g>
    </g>
  </g>
  <defs>
    <clipPath id="clip0_301_7946">
      <rect width="91.0083" height="97" fill="white" transform="translate(0.658691)"/>
    </clipPath>
    <clipPath id="clip1_301_7946">
      <rect width="88.5003" height="94.3269" fill="white" transform="translate(-8.3335 26.7097) rotate(-7.60322)"/>
    </clipPath>
  </defs>
</svg>
