<svg width="98" height="97" viewBox="0 0 98 97" fill="none" xmlns="http://www.w3.org/2000/svg">
  <g clip-path="url(#clip0_301_8395)">
    <g opacity="0.5">
      <path fill-rule="evenodd" clip-rule="evenodd" d="M24.6001 72.5576C27.3573 72.5576 29.8188 71.3807 31.435 69.5379C31.9622 68.9368 33.0373 68.9368 33.5645 69.5379C35.1807 71.3807 37.6422 72.5576 40.3994 72.5576C43.1545 72.5576 45.6144 71.3824 47.2306 69.5419C47.7573 68.9422 48.8288 68.9422 49.3554 69.5419C50.9718 71.3824 53.4316 72.5576 56.1867 72.5576C58.9443 72.5576 61.4061 71.3804 63.0223 69.5371C63.5496 68.9357 64.6255 68.9357 65.1528 69.5371C66.769 71.3804 69.2308 72.5576 71.9883 72.5576C72.6225 72.5576 73.2411 72.4953 73.8373 72.377C74.5188 72.2418 75.2134 72.7275 75.2134 73.4222V99.8977C75.2134 101.059 74.1052 102 72.7383 102H22.6885C21.3215 102 20.2134 101.059 20.2134 99.8977V73.1406C20.2134 72.3853 21.0288 71.8906 21.7487 72.1193C22.643 72.4034 23.6022 72.5576 24.6001 72.5576Z" fill="#FFDD00"/>
      <path fill-rule="evenodd" clip-rule="evenodd" d="M25.3439 45C24.6277 45 23.9723 45.3826 23.6479 45.9898L15.4221 61.3932C15.3468 61.5342 15.2928 61.6784 15.2587 61.8228L15.2534 61.8462C15.2532 61.8472 15.2524 61.8478 15.2515 61.8478C15.2503 61.8478 15.2494 61.8487 15.2494 61.8499V61.8632C15.2494 61.8643 15.2493 61.8653 15.2491 61.8664C15.1857 62.1699 15.2087 62.4739 15.302 62.7537C15.3039 62.7596 15.3053 62.7657 15.3061 62.7718C15.8086 66.8391 19.5888 70 24.1774 70C26.9823 70 29.485 68.8191 31.1218 66.972C31.647 66.3793 32.7044 66.3794 33.2296 66.972C34.8664 68.8191 37.3691 70 40.1739 70C42.9795 70 45.4828 68.8184 47.1195 66.9704C47.645 66.3772 48.7039 66.3772 49.2293 66.9704C50.8661 68.8184 53.3695 70 56.1751 70C58.9798 70 61.4825 68.8191 63.1193 66.9721C63.6445 66.3794 64.702 66.3794 65.2272 66.9721C66.864 68.8191 69.3667 70 72.1714 70C76.6006 70 80.2765 67.055 80.9787 63.1926C80.9985 63.0836 81.0357 62.9785 81.0784 62.8764C81.2796 62.3948 81.2683 61.8281 80.9599 61.3149L71.7059 45.9117C71.3672 45.3479 70.7369 45 70.0543 45H25.3439ZM38.2737 48.2085C38.4582 47.5749 37.9597 46.9427 37.1603 46.7963C36.3608 46.6501 35.5632 47.0453 35.3787 47.679L30.9223 62.9864C30.7378 63.6201 31.2363 64.2523 32.0356 64.3985C32.8351 64.5449 33.6327 64.1497 33.8172 63.516L38.2737 48.2085ZM48.8544 47.6675C48.858 47.133 48.3294 46.7351 47.6737 46.7791C47.018 46.8231 46.5707 47.1328 46.5671 47.6675L46.5804 62.6001C46.5769 63.1346 47.0184 63.6916 47.6741 63.6476C48.3298 63.6037 48.8643 63.1346 48.8678 62.6001L48.8544 47.6675ZM58.0338 46.7967C57.2343 46.9429 56.7358 47.5752 56.9203 48.2087L61.3769 63.5163C61.5613 64.15 62.359 64.5451 63.1583 64.3988C63.9577 64.2526 64.4562 63.6204 64.2718 62.9868L59.8152 47.6793C59.6307 47.0456 58.8331 46.6504 58.0338 46.7967Z" fill="#FFDD00"/>
      <path fill-rule="evenodd" clip-rule="evenodd" d="M24.6001 72.5576C27.3573 72.5576 29.8188 71.3807 31.435 69.5379C31.9622 68.9368 33.0373 68.9368 33.5645 69.5379C35.1807 71.3807 37.6422 72.5576 40.3994 72.5576C43.1545 72.5576 45.6144 71.3824 47.2306 69.5419C47.7573 68.9422 48.8288 68.9422 49.3554 69.5419C50.9718 71.3824 53.4316 72.5576 56.1867 72.5576C58.9443 72.5576 61.4061 71.3804 63.0223 69.5371C63.5496 68.9357 64.6255 68.9357 65.1528 69.5371C66.769 71.3804 69.2308 72.5576 71.9883 72.5576C72.6225 72.5576 73.2411 72.4953 73.8373 72.377C74.5188 72.2418 75.2134 72.7275 75.2134 73.4222V99.8977C75.2134 101.059 74.1052 102 72.7383 102H22.6885C21.3215 102 20.2134 101.059 20.2134 99.8977V73.1406C20.2134 72.3853 21.0288 71.8906 21.7487 72.1193C22.643 72.4034 23.6022 72.5576 24.6001 72.5576Z" stroke="#EDEDED" stroke-width="26.6"/>
      <path fill-rule="evenodd" clip-rule="evenodd" d="M25.3439 45C24.6277 45 23.9723 45.3826 23.6479 45.9898L15.4221 61.3932C15.3468 61.5342 15.2928 61.6784 15.2587 61.8228L15.2534 61.8462C15.2532 61.8472 15.2524 61.8478 15.2515 61.8478C15.2503 61.8478 15.2494 61.8487 15.2494 61.8499V61.8632C15.2494 61.8643 15.2493 61.8653 15.2491 61.8664C15.1857 62.1699 15.2087 62.4739 15.302 62.7537C15.3039 62.7596 15.3053 62.7657 15.3061 62.7718C15.8086 66.8391 19.5888 70 24.1774 70C26.9823 70 29.485 68.8191 31.1218 66.972C31.647 66.3793 32.7044 66.3794 33.2296 66.972C34.8664 68.8191 37.3691 70 40.1739 70C42.9795 70 45.4828 68.8184 47.1195 66.9704C47.645 66.3772 48.7039 66.3772 49.2293 66.9704C50.8661 68.8184 53.3695 70 56.1751 70C58.9798 70 61.4825 68.8191 63.1193 66.9721C63.6445 66.3794 64.702 66.3794 65.2272 66.9721C66.864 68.8191 69.3667 70 72.1714 70C76.6006 70 80.2765 67.055 80.9787 63.1926C80.9985 63.0836 81.0357 62.9785 81.0784 62.8764C81.2796 62.3948 81.2683 61.8281 80.9599 61.3149L71.7059 45.9117C71.3672 45.3479 70.7369 45 70.0543 45H25.3439ZM38.2737 48.2085C38.4582 47.5749 37.9597 46.9427 37.1603 46.7963C36.3608 46.6501 35.5632 47.0453 35.3787 47.679L30.9223 62.9864C30.7378 63.6201 31.2363 64.2523 32.0356 64.3985C32.8351 64.5449 33.6327 64.1497 33.8172 63.516L38.2737 48.2085ZM48.8544 47.6675C48.858 47.133 48.3294 46.7351 47.6737 46.7791C47.018 46.8231 46.5707 47.1328 46.5671 47.6675L46.5804 62.6001C46.5769 63.1346 47.0184 63.6916 47.6741 63.6476C48.3298 63.6037 48.8643 63.1346 48.8678 62.6001L48.8544 47.6675ZM58.0338 46.7967C57.2343 46.9429 56.7358 47.5752 56.9203 48.2087L61.3769 63.5163C61.5613 64.15 62.359 64.5451 63.1583 64.3988C63.9577 64.2526 64.4562 63.6204 64.2718 62.9868L59.8152 47.6793C59.6307 47.0456 58.8331 46.6504 58.0338 46.7967Z" stroke="#EDEDED" stroke-width="26.6"/>
    </g>
    <g opacity="0.5">
      <path fill-rule="evenodd" clip-rule="evenodd" d="M24.6001 72.5576C27.3573 72.5576 29.8188 71.3807 31.435 69.5379C31.9622 68.9368 33.0373 68.9368 33.5645 69.5379C35.1807 71.3807 37.6422 72.5576 40.3994 72.5576C43.1545 72.5576 45.6144 71.3824 47.2306 69.5419C47.7573 68.9422 48.8288 68.9422 49.3554 69.5419C50.9718 71.3824 53.4316 72.5576 56.1867 72.5576C58.9443 72.5576 61.4061 71.3804 63.0223 69.5371C63.5496 68.9357 64.6255 68.9357 65.1528 69.5371C66.769 71.3804 69.2308 72.5576 71.9883 72.5576C72.6225 72.5576 73.2411 72.4953 73.8373 72.377C74.5188 72.2418 75.2134 72.7275 75.2134 73.4222V99.8977C75.2134 101.059 74.1052 102 72.7383 102H22.6885C21.3215 102 20.2134 101.059 20.2134 99.8977V73.1406C20.2134 72.3853 21.0288 71.8906 21.7487 72.1193C22.643 72.4034 23.6022 72.5576 24.6001 72.5576Z" fill="#FFDD00"/>
      <path fill-rule="evenodd" clip-rule="evenodd" d="M25.3439 45C24.6277 45 23.9723 45.3826 23.6479 45.9898L15.4221 61.3932C15.3468 61.5342 15.2928 61.6784 15.2587 61.8228L15.2534 61.8462C15.2532 61.8472 15.2524 61.8478 15.2515 61.8478C15.2503 61.8478 15.2494 61.8487 15.2494 61.8499V61.8632C15.2494 61.8643 15.2493 61.8653 15.2491 61.8664C15.1857 62.1699 15.2087 62.4739 15.302 62.7537C15.3039 62.7596 15.3053 62.7657 15.3061 62.7718C15.8086 66.8391 19.5888 70 24.1774 70C26.9823 70 29.485 68.8191 31.1218 66.972C31.647 66.3793 32.7044 66.3794 33.2296 66.972C34.8664 68.8191 37.3691 70 40.1739 70C42.9795 70 45.4828 68.8184 47.1195 66.9704C47.645 66.3772 48.7039 66.3772 49.2293 66.9704C50.8661 68.8184 53.3695 70 56.1751 70C58.9798 70 61.4825 68.8191 63.1193 66.9721C63.6445 66.3794 64.702 66.3794 65.2272 66.9721C66.864 68.8191 69.3667 70 72.1714 70C76.6006 70 80.2765 67.055 80.9787 63.1926C80.9985 63.0836 81.0357 62.9785 81.0784 62.8764C81.2796 62.3948 81.2683 61.8281 80.9599 61.3149L71.7059 45.9117C71.3672 45.3479 70.7369 45 70.0543 45H25.3439ZM38.2737 48.2085C38.4582 47.5749 37.9597 46.9427 37.1603 46.7963C36.3608 46.6501 35.5632 47.0453 35.3787 47.679L30.9223 62.9864C30.7378 63.6201 31.2363 64.2523 32.0356 64.3985C32.8351 64.5449 33.6327 64.1497 33.8172 63.516L38.2737 48.2085ZM48.8544 47.6675C48.858 47.133 48.3294 46.7351 47.6737 46.7791C47.018 46.8231 46.5707 47.1328 46.5671 47.6675L46.5804 62.6001C46.5769 63.1346 47.0184 63.6916 47.6741 63.6476C48.3298 63.6037 48.8643 63.1346 48.8678 62.6001L48.8544 47.6675ZM58.0338 46.7967C57.2343 46.9429 56.7358 47.5752 56.9203 48.2087L61.3769 63.5163C61.5613 64.15 62.359 64.5451 63.1583 64.3988C63.9577 64.2526 64.4562 63.6204 64.2718 62.9868L59.8152 47.6793C59.6307 47.0456 58.8331 46.6504 58.0338 46.7967Z" fill="#FFDD00"/>
      <path fill-rule="evenodd" clip-rule="evenodd" d="M24.6001 72.5576C27.3573 72.5576 29.8188 71.3807 31.435 69.5379C31.9622 68.9368 33.0373 68.9368 33.5645 69.5379C35.1807 71.3807 37.6422 72.5576 40.3994 72.5576C43.1545 72.5576 45.6144 71.3824 47.2306 69.5419C47.7573 68.9422 48.8288 68.9422 49.3554 69.5419C50.9718 71.3824 53.4316 72.5576 56.1867 72.5576C58.9443 72.5576 61.4061 71.3804 63.0223 69.5371C63.5496 68.9357 64.6255 68.9357 65.1528 69.5371C66.769 71.3804 69.2308 72.5576 71.9883 72.5576C72.6225 72.5576 73.2411 72.4953 73.8373 72.377C74.5188 72.2418 75.2134 72.7275 75.2134 73.4222V99.8977C75.2134 101.059 74.1052 102 72.7383 102H22.6885C21.3215 102 20.2134 101.059 20.2134 99.8977V73.1406C20.2134 72.3853 21.0288 71.8906 21.7487 72.1193C22.643 72.4034 23.6022 72.5576 24.6001 72.5576Z" stroke="#DDDDDD" stroke-width="13.3"/>
      <path fill-rule="evenodd" clip-rule="evenodd" d="M25.3439 45C24.6277 45 23.9723 45.3826 23.6479 45.9898L15.4221 61.3932C15.3468 61.5342 15.2928 61.6784 15.2587 61.8228L15.2534 61.8462C15.2532 61.8472 15.2524 61.8478 15.2515 61.8478C15.2503 61.8478 15.2494 61.8487 15.2494 61.8499V61.8632C15.2494 61.8643 15.2493 61.8653 15.2491 61.8664C15.1857 62.1699 15.2087 62.4739 15.302 62.7537C15.3039 62.7596 15.3053 62.7657 15.3061 62.7718C15.8086 66.8391 19.5888 70 24.1774 70C26.9823 70 29.485 68.8191 31.1218 66.972C31.647 66.3793 32.7044 66.3794 33.2296 66.972C34.8664 68.8191 37.3691 70 40.1739 70C42.9795 70 45.4828 68.8184 47.1195 66.9704C47.645 66.3772 48.7039 66.3772 49.2293 66.9704C50.8661 68.8184 53.3695 70 56.1751 70C58.9798 70 61.4825 68.8191 63.1193 66.9721C63.6445 66.3794 64.702 66.3794 65.2272 66.9721C66.864 68.8191 69.3667 70 72.1714 70C76.6006 70 80.2765 67.055 80.9787 63.1926C80.9985 63.0836 81.0357 62.9785 81.0784 62.8764C81.2796 62.3948 81.2683 61.8281 80.9599 61.3149L71.7059 45.9117C71.3672 45.3479 70.7369 45 70.0543 45H25.3439ZM38.2737 48.2085C38.4582 47.5749 37.9597 46.9427 37.1603 46.7963C36.3608 46.6501 35.5632 47.0453 35.3787 47.679L30.9223 62.9864C30.7378 63.6201 31.2363 64.2523 32.0356 64.3985C32.8351 64.5449 33.6327 64.1497 33.8172 63.516L38.2737 48.2085ZM48.8544 47.6675C48.858 47.133 48.3294 46.7351 47.6737 46.7791C47.018 46.8231 46.5707 47.1328 46.5671 47.6675L46.5804 62.6001C46.5769 63.1346 47.0184 63.6916 47.6741 63.6476C48.3298 63.6037 48.8643 63.1346 48.8678 62.6001L48.8544 47.6675ZM58.0338 46.7967C57.2343 46.9429 56.7358 47.5752 56.9203 48.2087L61.3769 63.5163C61.5613 64.15 62.359 64.5451 63.1583 64.3988C63.9577 64.2526 64.4562 63.6204 64.2718 62.9868L59.8152 47.6793C59.6307 47.0456 58.8331 46.6504 58.0338 46.7967Z" stroke="#DDDDDD" stroke-width="13.3"/>
    </g>
    <path d="M15.2534 61.8462L15.2534 61.8462L15.2534 61.8462ZM15.2534 61.8462C15.2532 61.8472 15.2524 61.8478 15.2515 61.8478C15.2503 61.8478 15.2494 61.8487 15.2494 61.8499V61.8632C15.2494 61.8643 15.2493 61.8653 15.2491 61.8664C15.1994 62.1042 15.2028 62.3423 15.2515 62.5689C15.2649 62.6315 15.2818 62.6932 15.302 62.7537L15.2534 61.8462ZM32.2156 63.4149L32.2157 63.4149C32.4057 63.4496 32.5859 63.4168 32.7131 63.3537C32.8352 63.2932 32.8571 63.2355 32.8573 63.2355L37.3079 47.9486C37.306 47.9458 37.3036 47.9426 37.3007 47.9389C37.2677 47.897 37.1705 47.8149 36.9804 47.78L32.2156 63.4149ZM32.2156 63.4149C32.0255 63.3801 31.9283 63.298 31.8953 63.2561C31.8924 63.2524 31.89 63.2491 31.8882 63.2463L36.3386 47.9595C36.3388 47.9595 36.3607 47.9017 36.4828 47.8413M32.2156 63.4149L36.4828 47.8413M47.8545 47.7844C47.8262 47.7779 47.788 47.7737 47.7406 47.7769C47.6672 47.7818 47.6098 47.7918 47.5672 47.8027L47.5804 62.5992L47.8545 47.7844ZM47.8545 47.7844L47.8677 62.5452L47.8545 47.7844ZM36.4828 47.8413C36.6101 47.7782 36.7903 47.7453 36.9802 47.78L36.4828 47.8413ZM22.7659 45.5186L22.7658 45.5188L14.5401 60.922C14.54 60.9221 14.54 60.9221 14.54 60.9221C14.4341 61.1204 14.354 61.3261 14.2997 61.5357C14.2785 61.5999 14.2637 61.6669 14.2558 61.736C14.1792 62.1617 14.2087 62.5853 14.3243 62.9776C14.937 67.5673 19.1801 71 24.1774 71C27.263 71 30.04 69.7005 31.8702 67.6352C31.9106 67.5896 32.0135 67.5275 32.1757 67.5275C32.3379 67.5275 32.4408 67.5896 32.4812 67.6352C32.631 67.8042 32.787 67.9681 32.9491 68.1265C32.7982 68.0999 32.6473 68.0871 32.4997 68.0871C31.8662 68.0871 31.1701 68.3233 30.6832 68.8785C29.2581 70.5033 27.0713 71.5576 24.6001 71.5576C23.7055 71.5576 22.8484 71.4194 22.0514 71.1663C20.8159 70.7738 19.2134 71.5788 19.2134 73.1406V99.8977C19.2134 101.758 20.9285 103 22.6885 103H72.7383C74.4982 103 76.2134 101.758 76.2134 99.8977V73.4222C76.2134 71.9925 74.8356 71.1595 73.6427 71.3961C73.1104 71.5017 72.557 71.5576 71.9883 71.5576C69.6251 71.5576 67.522 70.5935 66.0965 69.0882C67.7816 70.291 69.8924 71 72.1714 71C77.0268 71 81.1641 67.7634 81.9626 63.3714C81.9639 63.3639 81.9709 63.3341 82.0011 63.2619L81.0784 62.8764L82.0011 63.2619C82.3182 62.5031 82.2982 61.6006 81.8171 60.7999C81.8171 60.7999 81.8171 60.7999 81.817 60.7998L72.5631 45.3967L72.5631 45.3966C72.0353 44.5182 71.0717 44 70.0543 44H25.3439C24.2771 44 23.2727 44.5699 22.7659 45.5186ZM14.2703 61.6618L14.2702 61.6619L14.2703 61.6618ZM14.3533 63.0699C14.353 63.0691 14.3528 63.0684 14.3525 63.0676L14.3533 63.0699ZM40.3994 71.5576C38.4592 71.5576 36.6944 70.9077 35.3359 69.8422C36.7714 70.5816 38.423 71 40.1739 71C42.5122 71 44.6734 70.2537 46.3795 68.9933C44.9533 70.5528 42.8119 71.5576 40.3994 71.5576ZM48.293 68.0921C47.9137 68.0921 47.5122 68.1769 47.1466 68.3642C47.4008 68.133 47.6417 67.8891 47.8681 67.6335C47.9086 67.5878 48.0117 67.5255 48.1744 67.5255C48.3372 67.5255 48.4403 67.5878 48.4808 67.6334C48.6537 67.8287 48.8351 68.0172 49.0245 68.1983C48.7816 68.126 48.5329 68.0921 48.293 68.0921ZM56.1867 71.5576C54.0377 71.5576 52.1037 70.7603 50.6988 69.4837C52.2736 70.4449 54.1585 71 56.1751 71C58.2222 71 60.1336 70.4279 61.7228 69.4398C60.314 70.7419 58.3604 71.5576 56.1867 71.5576ZM64.0876 68.086C63.8363 68.086 63.5751 68.1232 63.3211 68.2026C63.5115 68.0207 63.6939 67.8315 63.8677 67.6353C63.9081 67.5897 64.011 67.5276 64.1733 67.5276C64.3355 67.5276 64.4384 67.5897 64.4788 67.6353C64.6883 67.8717 64.9103 68.0981 65.1436 68.3137C64.8028 68.1573 64.4357 68.086 64.0876 68.086ZM15.3156 62.8458C15.2944 62.8471 15.273 62.8478 15.2515 62.8478C15.273 62.8478 15.2944 62.8471 15.3156 62.8458ZM47.8795 62.5318C47.8805 62.5299 47.8812 62.5289 47.8813 62.5289C47.8814 62.529 47.8809 62.5299 47.8795 62.5318ZM58.2137 47.7804L58.2139 47.7804C58.4037 47.7456 58.5839 47.7785 58.7111 47.8415C58.8332 47.902 58.8551 47.9598 58.8553 47.9597L63.3059 63.2466C63.304 63.2494 63.3017 63.2527 63.2988 63.2564C63.2658 63.2982 63.1686 63.3803 62.9784 63.4151L62.9782 63.4151C62.7883 63.4499 62.6082 63.417 62.4809 63.354C62.3589 63.2935 62.3369 63.2357 62.3367 63.2358L57.8862 47.9489C57.8881 47.9461 57.8904 47.9429 57.8933 47.9392C57.9263 47.8973 58.0235 47.8152 58.2137 47.7804ZM62.337 63.2368L61.3769 63.5163L62.337 63.2367L62.3369 63.2363C62.3369 63.2364 62.337 63.2366 62.337 63.2368ZM58.8551 47.9588L59.8152 47.6793L58.8551 47.9588L58.8552 47.9592C58.8551 47.9591 58.8551 47.9589 58.8551 47.9588ZM15.3061 62.7718L15.3059 62.7718L15.3061 62.7718Z" fill="#FFDD00" stroke="#FFF3B7" stroke-width="2"/>
    <path fill-rule="evenodd" clip-rule="evenodd" d="M24.6001 72.5576C28.0622 72.5576 31.0582 70.7019 32.4997 68.0023C33.9413 70.7019 36.9372 72.5576 40.3994 72.5576C43.8568 72.5576 46.8491 70.7071 48.293 68.0133C49.737 70.7071 52.7294 72.5576 56.1867 72.5576C59.6498 72.5576 62.6464 70.701 64.0876 68C65.5287 70.701 68.5253 72.5576 71.9883 72.5576C73.1267 72.5576 74.2146 72.357 75.2134 71.9918V99.8977C75.2134 101.059 74.1052 102 72.7383 102H22.6885C21.3215 102 20.2134 101.059 20.2134 99.8977V71.4723C21.5053 72.1628 23.003 72.5576 24.6001 72.5576Z" fill="#FFDD00"/>
    <path fill-rule="evenodd" clip-rule="evenodd" d="M25.3439 45C24.6277 45 23.9723 45.3826 23.6479 45.9898L15.4221 61.3932C15.3468 61.5342 15.2928 61.6784 15.2587 61.8228L15.2531 61.8478H15.2494V61.8648C15.1856 62.1688 15.2085 62.4734 15.302 62.7537L15.3049 62.7626C15.8029 66.8343 19.5853 70 24.1774 70C27.6815 70 30.7139 68.1569 32.1757 65.4744C33.6373 68.1569 36.6699 70 40.1739 70C43.6798 70 46.7138 68.1549 48.1744 65.47C49.6352 68.1549 52.6692 70 56.1751 70C59.6791 70 62.7116 68.1569 64.1733 65.4744C65.6349 68.1569 68.6675 70 72.1714 70C76.6635 70 80.3807 66.9707 81.0068 63.0274C81.2787 62.5163 81.3012 61.8828 80.9599 61.3149L71.7059 45.9117C71.3672 45.3479 70.7369 45 70.0543 45H25.3439ZM38.2737 48.2085C38.4582 47.5749 37.9597 46.9427 37.1603 46.7963C36.3608 46.6501 35.5632 47.0453 35.3787 47.679L30.9223 62.9864C30.7378 63.6201 31.2363 64.2523 32.0356 64.3985C32.8351 64.5449 33.6327 64.1497 33.8172 63.516L38.2737 48.2085ZM48.8544 47.6675C48.858 47.133 48.3294 46.7351 47.6737 46.7791C47.018 46.8231 46.5707 47.1328 46.5671 47.6675L46.5804 62.6001C46.5769 63.1346 47.0184 63.6916 47.6741 63.6476C48.3298 63.6037 48.8643 63.1346 48.8678 62.6001L48.8544 47.6675ZM58.0338 46.7967C57.2343 46.9429 56.7358 47.5752 56.9203 48.2087L61.3769 63.5163C61.5613 64.15 62.359 64.5451 63.1583 64.3988C63.9577 64.2526 64.4562 63.6204 64.2718 62.9868L59.8152 47.6793C59.6307 47.0456 58.8331 46.6504 58.0338 46.7967Z" fill="#FFDD00"/>
  </g>
  <defs>
    <clipPath id="clip0_301_8395">
      <rect width="97" height="97" fill="white" transform="translate(0.333496)"/>
    </clipPath>
  </defs>
</svg>
