<svg width="120" height="101" viewBox="0 0 120 101" fill="none" xmlns="http://www.w3.org/2000/svg">
  <path opacity="0.5" d="M96.9821 38.8493C97.6152 38.1145 96.8321 37.0616 95.9033 37.3412C94.9044 37.6418 94.1931 36.1378 94.8555 35.3318C95.3547 34.7244 95.8008 34.0713 96.1866 33.3795C96.6348 32.5758 95.7374 31.809 94.9039 32.1991C93.1755 33.0079 91.3459 33.6344 89.4385 34.0546C89.1006 34.129 88.7523 34.0127 88.5058 33.77C86.1378 31.4386 82.8871 30 79.3101 30C72.0595 30 66.1809 35.9093 66.1809 43.1991C66.1809 43.7755 66.2169 44.3438 66.2878 44.9017C66.3715 45.5609 65.8597 46.1733 65.1976 46.1163C55.3362 45.2679 46.5706 40.572 40.3914 33.5249C39.9296 32.9984 39.0813 33.0676 38.7987 33.7084C38.0787 35.3413 37.6788 37.1494 37.6788 39.0527C37.6788 42.3766 38.9003 45.4169 40.9177 47.739C41.5764 48.4971 41.0549 49.7622 40.0952 49.4661C39.265 49.2099 38.4697 48.8736 37.7188 48.4668C37.652 48.4306 37.571 48.4775 37.571 48.5534C37.571 53.7106 40.5157 58.1778 44.8071 60.3503C45.5878 60.7456 45.5199 61.9575 44.6449 61.9575C44.3759 61.9575 44.1095 61.9492 43.8453 61.9329C43.0874 61.8861 42.4664 62.6012 42.7878 63.2892C44.4705 66.8915 47.7266 69.6055 51.6643 70.5374C52.5788 70.7539 52.9467 72.0001 52.1512 72.5007C48.0867 75.0585 43.2819 76.5369 38.1322 76.5369C37.3637 76.5369 37.0282 77.5793 37.7068 77.9403C42.9092 80.7081 48.8335 82.2817 55.1277 82.2817C79.2802 82.2817 92.4861 62.1703 92.4861 44.7283C92.4861 44.3369 92.4806 43.9461 92.4692 43.5567C92.4594 43.2208 92.6143 42.9013 92.8824 42.6987C94.3791 41.567 95.7547 40.2736 96.9821 38.8493Z" fill="#EDEDED" stroke="#EDEDED" stroke-width="26.6"/>
  <path opacity="0.5" d="M96.9821 38.8493C97.6152 38.1145 96.8321 37.0616 95.9033 37.3412C94.9044 37.6418 94.1931 36.1378 94.8555 35.3318C95.3547 34.7244 95.8008 34.0713 96.1866 33.3795C96.6348 32.5758 95.7374 31.809 94.9039 32.1991C93.1755 33.0079 91.3459 33.6344 89.4385 34.0546C89.1006 34.129 88.7523 34.0127 88.5058 33.77C86.1378 31.4386 82.8871 30 79.3101 30C72.0595 30 66.1809 35.9093 66.1809 43.1991C66.1809 43.7755 66.2169 44.3438 66.2878 44.9017C66.3715 45.5609 65.8597 46.1733 65.1976 46.1163C55.3362 45.2679 46.5706 40.572 40.3914 33.5249C39.9296 32.9984 39.0813 33.0676 38.7987 33.7084C38.0787 35.3413 37.6788 37.1494 37.6788 39.0527C37.6788 42.3766 38.9003 45.4169 40.9177 47.739C41.5764 48.4971 41.0549 49.7622 40.0952 49.4661C39.265 49.2099 38.4697 48.8736 37.7188 48.4668C37.652 48.4306 37.571 48.4775 37.571 48.5534C37.571 53.7106 40.5157 58.1778 44.8071 60.3503C45.5878 60.7456 45.5199 61.9575 44.6449 61.9575C44.3759 61.9575 44.1095 61.9492 43.8453 61.9329C43.0874 61.8861 42.4664 62.6012 42.7878 63.2892C44.4705 66.8915 47.7266 69.6055 51.6643 70.5374C52.5788 70.7539 52.9467 72.0001 52.1512 72.5007C48.0867 75.0585 43.2819 76.5369 38.1322 76.5369C37.3637 76.5369 37.0282 77.5793 37.7068 77.9403C42.9092 80.7081 48.8335 82.2817 55.1277 82.2817C79.2802 82.2817 92.4861 62.1703 92.4861 44.7283C92.4861 44.3369 92.4806 43.9461 92.4692 43.5567C92.4594 43.2208 92.6143 42.9013 92.8824 42.6987C94.3791 41.567 95.7547 40.2736 96.9821 38.8493Z" fill="black" stroke="#DDDDDD" stroke-width="13.3"/>
  <path d="M99 36.1888C96.6472 37.2401 94.1152 37.9492 91.4584 38.2666C94.1711 36.6341 96.251 34.0484 97.2319 30.9638C94.6946 32.4774 91.8859 33.5756 88.8939 34.1685C86.4996 31.6037 83.0867 30 79.3101 30C72.0595 30 66.1809 35.9093 66.1809 43.1991C66.1809 44.232 66.2965 45.2389 66.5213 46.2066C55.6084 45.6555 45.9323 40.4017 39.4561 32.416C38.3258 34.3644 37.6788 36.6315 37.6788 39.0527C37.6788 43.6313 39.9965 47.6719 43.5198 50.0382C41.3684 49.969 39.3431 49.3748 37.5723 48.3862C37.571 48.4411 37.571 48.4972 37.571 48.5534C37.571 54.9472 42.0973 60.2806 48.1045 61.4952C47.0028 61.7955 45.8427 61.9575 44.6449 61.9575C43.7978 61.9575 42.9755 61.8752 42.1739 61.7198C43.8459 66.9631 48.6943 70.7803 54.4392 70.8861C49.9454 74.4265 44.285 76.5369 38.1322 76.5369C37.0734 76.5369 36.0276 76.4742 35 76.3515C40.8124 80.0982 47.7135 82.2817 55.1277 82.2817C79.2802 82.2817 92.4861 62.1703 92.4861 44.7283C92.4861 44.1563 92.4744 43.5856 92.4497 43.0188C95.0142 41.1618 97.2409 38.8359 99 36.1888Z" fill="#00ACEE"/>
</svg>
