<svg width="116" height="97" viewBox="0 0 116 97" fill="none" xmlns="http://www.w3.org/2000/svg">
  <g clip-path="url(#clip0_301_8206)">
    <g opacity="0.5">
      <path d="M24.6675 40.2778C24.6675 36.4425 27.7212 33.3334 31.4883 33.3334H62.7669C64.5759 33.3334 66.3108 34.065 67.5899 35.3674L74.1182 42.0139L80.6464 48.6605C81.9255 49.9628 82.6441 51.7292 82.6441 53.571V99.3056C82.6441 103.141 79.5904 106.25 75.8234 106.25H31.4883C27.7212 106.25 24.6675 103.141 24.6675 99.3056V40.2778Z" fill="#E5E5E5"/>
      <path fill-rule="evenodd" clip-rule="evenodd" d="M31.4883 102.778H75.8234C77.7069 102.778 79.2337 101.223 79.2337 99.3056V53.571C79.2337 52.6501 78.8744 51.7669 78.2349 51.1157L65.1784 37.8226C64.5389 37.1714 63.6714 36.8056 62.7669 36.8056H31.4883C29.6048 36.8056 28.0779 38.3602 28.0779 40.2778V99.3056C28.0779 101.223 29.6048 102.778 31.4883 102.778ZM31.4883 33.3334C27.7212 33.3334 24.6675 36.4425 24.6675 40.2778V99.3056C24.6675 103.141 27.7212 106.25 31.4883 106.25H75.8234C79.5904 106.25 82.6441 103.141 82.6441 99.3056V53.571C82.6441 51.7292 81.9255 49.9628 80.6464 48.6605L67.5899 35.3674C66.3108 34.065 64.5759 33.3334 62.7669 33.3334H31.4883Z" fill="#666666"/>
      <path d="M62.1821 36.1481C62.1821 33.8281 64.9372 32.6662 66.5486 34.3067L74.1182 42.0139L81.6884 49.7211C83.2998 51.3616 82.1586 54.1667 79.8798 54.1667H65.5925C63.709 54.1667 62.1821 52.6121 62.1821 50.6945V36.1481Z" fill="#B6B6B6"/>
      <path fill-rule="evenodd" clip-rule="evenodd" d="M67.306 39.9883C66.6786 39.3496 65.5925 39.7938 65.5925 40.689V49.6945C65.5925 50.2468 66.0402 50.6945 66.5925 50.6945H75.4376C76.3242 50.6945 76.7723 49.6263 76.151 48.9937L67.306 39.9883ZM66.5486 34.3067C64.9372 32.6662 62.1821 33.8281 62.1821 36.1481V50.6945C62.1821 52.6121 63.709 54.1667 65.5925 54.1667H79.8798C82.1586 54.1667 83.2998 51.3616 81.6884 49.7211L66.5486 34.3067Z" fill="#666666"/>
      <path d="M72.9668 74.5088C72.218 75.2712 71.3052 75.8455 70.3007 76.1864L66.2114 77.5743C65.5448 77.8005 64.9107 77.1549 65.1329 76.4762L66.496 72.3128C66.8308 71.29 67.395 70.3607 68.1437 69.5984L91.1203 46.2053C92.4521 44.8493 94.6115 44.8493 95.9433 46.2053C97.2752 47.5612 97.2752 49.7597 95.9433 51.1157L72.9668 74.5088Z" fill="white"/>
      <path d="M72.9668 74.5088C72.218 75.2712 71.3052 75.8455 70.3007 76.1864L66.2114 77.5743C65.5448 77.8005 64.9107 77.1549 65.1329 76.4762L66.496 72.3128C66.8308 71.29 67.395 70.3607 68.1437 69.5984L91.1203 46.2053C92.4521 44.8493 94.6115 44.8493 95.9433 46.2053C97.2752 47.5612 97.2752 49.7597 95.9433 51.1157L72.9668 74.5088Z" fill="white"/>
      <path fill-rule="evenodd" clip-rule="evenodd" d="M65.7322 67.143L88.7088 43.7499C91.3725 41.0379 95.6911 41.0379 98.3548 43.7499C101.019 46.4619 101.019 50.8589 98.3548 53.5708L75.3783 76.964C74.2552 78.1074 72.886 78.969 71.3791 79.4804L67.2898 80.8682C63.9572 81.9992 60.7866 78.7712 61.8975 75.3781L63.2606 71.2147C63.7629 69.6805 64.6091 68.2865 65.7322 67.143ZM70.3007 76.1864C71.3052 75.8455 72.218 75.2712 72.9668 74.5088L95.9433 51.1157C97.2752 49.7597 97.2752 47.5612 95.9433 46.2053C94.6115 44.8493 92.4521 44.8493 91.1203 46.2053L68.1437 69.5984C67.395 70.3607 66.8308 71.29 66.496 72.3128L65.1329 76.4762C64.9107 77.1549 65.5448 77.8005 66.2114 77.5743L70.3007 76.1864Z" fill="#666666"/>
      <path d="M74.398 73.0514C72.943 74.5328 70.6135 74.6346 69.0345 73.2912C69.0131 73.273 68.9934 73.2526 68.9758 73.2305C67.8558 71.8251 67.9599 69.7853 69.2168 68.5056L91.1203 46.2053C92.4521 44.8493 94.6115 44.8493 95.9433 46.2053C97.2752 47.5612 97.2752 49.7597 95.9433 51.1157L74.398 73.0514Z" fill="#B6B6B6"/>
      <path fill-rule="evenodd" clip-rule="evenodd" d="M91.1689 48.9584L92.674 50.5442C93.7081 51.6339 95.4188 51.6488 96.4712 50.5774C97.5109 49.5188 97.5109 47.8025 96.4712 46.7439L95.3888 45.642C94.3626 44.5972 92.6988 44.5972 91.6726 45.642L91.1111 46.2137C90.3597 46.9787 90.386 48.2269 91.1689 48.9584ZM88.7702 51.4278L90.2215 52.957C92.5803 55.4424 96.4823 55.4765 98.8827 53.0326C101.254 50.618 101.254 46.7033 98.8827 44.2887L97.8003 43.1868C95.4423 40.786 91.6191 40.786 89.2611 43.1868L88.6996 43.7585C86.6059 45.8901 86.6485 49.3493 88.7702 51.4278Z" fill="#666666"/>
      <path d="M96.4712 50.5774C95.4188 51.6488 93.7081 51.6339 92.674 50.5442L91.1689 48.9584C90.386 48.2269 90.3597 46.9787 91.1111 46.2137L91.6726 45.642C92.6988 44.5972 94.3626 44.5972 95.3888 45.642L96.4712 46.7439C97.5109 47.8025 97.5109 49.5188 96.4712 50.5774Z" fill="#E5E5E5"/>
      <path d="M67.2896 68.782C67.6815 68.383 68.3245 68.383 68.7164 68.782L73.6585 73.8138C74.0406 74.2028 74.0406 74.8262 73.6585 75.2152L72.6487 76.2433C72.2568 76.6424 71.6138 76.6424 71.2218 76.2433L66.2797 71.2116C65.8976 70.8226 65.8976 70.1992 66.2797 69.8102L67.2896 68.782Z" fill="#666666"/>
      <path d="M74.1182 42.0139L67.5899 35.3674M74.1182 42.0139L80.6464 48.6605M74.1182 42.0139L66.5486 34.3067M74.1182 42.0139L81.6884 49.7211M67.5899 35.3674C66.3108 34.065 64.5759 33.3334 62.7669 33.3334H31.4883C27.7212 33.3334 24.6675 36.4425 24.6675 40.2778V99.3056C24.6675 103.141 27.7212 106.25 31.4883 106.25H75.8234C79.5904 106.25 82.6441 103.141 82.6441 99.3056V53.571C82.6441 51.7292 81.9255 49.9628 80.6464 48.6605M67.5899 35.3674L80.6464 48.6605M81.6884 49.7211C83.2998 51.3616 82.1586 54.1667 79.8798 54.1667H65.5925C63.709 54.1667 62.1821 52.6121 62.1821 50.6945V36.1481C62.1821 33.8281 64.9372 32.6662 66.5486 34.3067M81.6884 49.7211L66.5486 34.3067M95.9433 51.1157L72.9668 74.5088C72.218 75.2712 71.3052 75.8455 70.3007 76.1864L66.2114 77.5743C65.5448 77.8005 64.9107 77.1549 65.1329 76.4762L66.496 72.3128C66.8308 71.29 67.395 70.3607 68.1437 69.5984L91.1203 46.2053M95.9433 51.1157C97.2752 49.7597 97.2752 47.5612 95.9433 46.2053C94.6115 44.8493 92.4521 44.8493 91.1203 46.2053M95.9433 51.1157L74.398 73.0514C72.943 74.5328 70.6135 74.6346 69.0345 73.2912M91.1203 46.2053L69.2168 68.5056C67.9599 69.7853 67.8558 71.8251 68.9758 73.2305M68.9758 73.2305Lnan nanM68.9758 73.2305C68.9934 73.2526 69.0131 73.273 69.0345 73.2912M69.0345 73.2912Lnan nanM91.1689 48.9584L92.674 50.5442C93.7081 51.6339 95.4188 51.6488 96.4712 50.5774C97.5109 49.5188 97.5109 47.8025 96.4712 46.7439L95.3888 45.642C94.3626 44.5972 92.6988 44.5972 91.6726 45.642L91.1111 46.2137C90.3597 46.9787 90.386 48.2269 91.1689 48.9584ZM91.1689 48.9584Lnan nanM75.8234 102.778H31.4883C29.6048 102.778 28.0779 101.223 28.0779 99.3056V40.2778C28.0779 38.3602 29.6048 36.8056 31.4883 36.8056H62.7669C63.6714 36.8056 64.5389 37.1714 65.1784 37.8226L78.2349 51.1157C78.8744 51.7669 79.2337 52.6501 79.2337 53.571V99.3056C79.2337 101.223 77.7069 102.778 75.8234 102.778ZM88.7088 43.7499L65.7322 67.143C64.6091 68.2865 63.7629 69.6805 63.2606 71.2147L61.8975 75.3781C60.7866 78.7712 63.9572 81.9992 67.2898 80.8682L71.3791 79.4804C72.886 78.969 74.2552 78.1074 75.3783 76.964L98.3548 53.5708C101.019 50.8589 101.019 46.4619 98.3548 43.7499C95.6911 41.0379 91.3725 41.0379 88.7088 43.7499ZM88.7702 51.4278L90.2215 52.957C92.5803 55.4424 96.4823 55.4765 98.8827 53.0326C101.254 50.618 101.254 46.7033 98.8827 44.2887L97.8003 43.1868C95.4423 40.786 91.6191 40.786 89.2611 43.1868L88.6996 43.7585C86.6059 45.8901 86.6485 49.3493 88.7702 51.4278ZM73.6585 73.8138L68.7164 68.782C68.3245 68.383 67.6815 68.383 67.2896 68.782L66.2797 69.8102C65.8976 70.1992 65.8976 70.8226 66.2797 71.2116L71.2218 76.2433C71.6138 76.6424 72.2568 76.6424 72.6487 76.2433L73.6585 75.2152C74.0406 74.8262 74.0406 74.2028 73.6585 73.8138ZM75.4376 50.6945H66.5925C66.0402 50.6945 65.5925 50.2468 65.5925 49.6945V40.689C65.5925 39.7938 66.6786 39.3496 67.306 39.9883L76.151 48.9937C76.7723 49.6263 76.3242 50.6945 75.4376 50.6945Z" stroke="#EDEDED" stroke-width="26.6"/>
    </g>
    <g opacity="0.5">
      <path d="M24.6675 40.2778C24.6675 36.4425 27.7212 33.3334 31.4883 33.3334H62.7669C64.5759 33.3334 66.3108 34.065 67.5899 35.3674L74.1182 42.0139L80.6464 48.6605C81.9255 49.9628 82.6441 51.7292 82.6441 53.571V99.3056C82.6441 103.141 79.5904 106.25 75.8234 106.25H31.4883C27.7212 106.25 24.6675 103.141 24.6675 99.3056V40.2778Z" fill="#E5E5E5"/>
      <path fill-rule="evenodd" clip-rule="evenodd" d="M31.4883 102.778H75.8234C77.7069 102.778 79.2337 101.223 79.2337 99.3056V53.571C79.2337 52.6501 78.8744 51.7669 78.2349 51.1157L65.1784 37.8226C64.5389 37.1714 63.6714 36.8056 62.7669 36.8056H31.4883C29.6048 36.8056 28.0779 38.3602 28.0779 40.2778V99.3056C28.0779 101.223 29.6048 102.778 31.4883 102.778ZM31.4883 33.3334C27.7212 33.3334 24.6675 36.4425 24.6675 40.2778V99.3056C24.6675 103.141 27.7212 106.25 31.4883 106.25H75.8234C79.5904 106.25 82.6441 103.141 82.6441 99.3056V53.571C82.6441 51.7292 81.9255 49.9628 80.6464 48.6605L67.5899 35.3674C66.3108 34.065 64.5759 33.3334 62.7669 33.3334H31.4883Z" fill="#666666"/>
      <path d="M62.1821 36.1481C62.1821 33.8281 64.9372 32.6662 66.5486 34.3067L74.1182 42.0139L81.6884 49.7211C83.2998 51.3616 82.1586 54.1667 79.8798 54.1667H65.5925C63.709 54.1667 62.1821 52.6121 62.1821 50.6945V36.1481Z" fill="#B6B6B6"/>
      <path fill-rule="evenodd" clip-rule="evenodd" d="M67.306 39.9883C66.6786 39.3496 65.5925 39.7938 65.5925 40.689V49.6945C65.5925 50.2468 66.0402 50.6945 66.5925 50.6945H75.4376C76.3242 50.6945 76.7723 49.6263 76.151 48.9937L67.306 39.9883ZM66.5486 34.3067C64.9372 32.6662 62.1821 33.8281 62.1821 36.1481V50.6945C62.1821 52.6121 63.709 54.1667 65.5925 54.1667H79.8798C82.1586 54.1667 83.2998 51.3616 81.6884 49.7211L66.5486 34.3067Z" fill="#666666"/>
      <path d="M72.9668 74.5088C72.218 75.2712 71.3052 75.8455 70.3007 76.1864L66.2114 77.5743C65.5448 77.8005 64.9107 77.1549 65.1329 76.4762L66.496 72.3128C66.8308 71.29 67.395 70.3607 68.1437 69.5984L91.1203 46.2053C92.4521 44.8493 94.6115 44.8493 95.9433 46.2053C97.2752 47.5612 97.2752 49.7597 95.9433 51.1157L72.9668 74.5088Z" fill="white"/>
      <path d="M72.9668 74.5088C72.218 75.2712 71.3052 75.8455 70.3007 76.1864L66.2114 77.5743C65.5448 77.8005 64.9107 77.1549 65.1329 76.4762L66.496 72.3128C66.8308 71.29 67.395 70.3607 68.1437 69.5984L91.1203 46.2053C92.4521 44.8493 94.6115 44.8493 95.9433 46.2053C97.2752 47.5612 97.2752 49.7597 95.9433 51.1157L72.9668 74.5088Z" fill="white"/>
      <path fill-rule="evenodd" clip-rule="evenodd" d="M65.7322 67.143L88.7088 43.7499C91.3725 41.0379 95.6911 41.0379 98.3548 43.7499C101.019 46.4619 101.019 50.8589 98.3548 53.5708L75.3783 76.964C74.2552 78.1074 72.886 78.969 71.3791 79.4804L67.2898 80.8682C63.9572 81.9992 60.7866 78.7712 61.8975 75.3781L63.2606 71.2147C63.7629 69.6805 64.6091 68.2865 65.7322 67.143ZM70.3007 76.1864C71.3052 75.8455 72.218 75.2712 72.9668 74.5088L95.9433 51.1157C97.2752 49.7597 97.2752 47.5612 95.9433 46.2053C94.6115 44.8493 92.4521 44.8493 91.1203 46.2053L68.1437 69.5984C67.395 70.3607 66.8308 71.29 66.496 72.3128L65.1329 76.4762C64.9107 77.1549 65.5448 77.8005 66.2114 77.5743L70.3007 76.1864Z" fill="#666666"/>
      <path d="M74.398 73.0514C72.943 74.5328 70.6135 74.6346 69.0345 73.2912C69.0131 73.273 68.9934 73.2526 68.9758 73.2305C67.8558 71.8251 67.9599 69.7853 69.2168 68.5056L91.1203 46.2053C92.4521 44.8493 94.6115 44.8493 95.9433 46.2053C97.2752 47.5612 97.2752 49.7597 95.9433 51.1157L74.398 73.0514Z" fill="#B6B6B6"/>
      <path fill-rule="evenodd" clip-rule="evenodd" d="M91.1689 48.9584L92.674 50.5442C93.7081 51.6339 95.4188 51.6488 96.4712 50.5774C97.5109 49.5188 97.5109 47.8025 96.4712 46.7439L95.3888 45.642C94.3626 44.5972 92.6988 44.5972 91.6726 45.642L91.1111 46.2137C90.3597 46.9787 90.386 48.2269 91.1689 48.9584ZM88.7702 51.4278L90.2215 52.957C92.5803 55.4424 96.4823 55.4765 98.8827 53.0326C101.254 50.618 101.254 46.7033 98.8827 44.2887L97.8003 43.1868C95.4423 40.786 91.6191 40.786 89.2611 43.1868L88.6996 43.7585C86.6059 45.8901 86.6485 49.3493 88.7702 51.4278Z" fill="#666666"/>
      <path d="M96.4712 50.5774C95.4188 51.6488 93.7081 51.6339 92.674 50.5442L91.1689 48.9584C90.386 48.2269 90.3597 46.9787 91.1111 46.2137L91.6726 45.642C92.6988 44.5972 94.3626 44.5972 95.3888 45.642L96.4712 46.7439C97.5109 47.8025 97.5109 49.5188 96.4712 50.5774Z" fill="#E5E5E5"/>
      <path d="M67.2896 68.782C67.6815 68.383 68.3245 68.383 68.7164 68.782L73.6585 73.8138C74.0406 74.2028 74.0406 74.8262 73.6585 75.2152L72.6487 76.2433C72.2568 76.6424 71.6138 76.6424 71.2218 76.2433L66.2797 71.2116C65.8976 70.8226 65.8976 70.1992 66.2797 69.8102L67.2896 68.782Z" fill="#666666"/>
      <path d="M74.1182 42.0139L67.5899 35.3674M74.1182 42.0139L80.6464 48.6605M74.1182 42.0139L66.5486 34.3067M74.1182 42.0139L81.6884 49.7211M67.5899 35.3674C66.3108 34.065 64.5759 33.3334 62.7669 33.3334H31.4883C27.7212 33.3334 24.6675 36.4425 24.6675 40.2778V99.3056C24.6675 103.141 27.7212 106.25 31.4883 106.25H75.8234C79.5904 106.25 82.6441 103.141 82.6441 99.3056V53.571C82.6441 51.7292 81.9255 49.9628 80.6464 48.6605M67.5899 35.3674L80.6464 48.6605M81.6884 49.7211C83.2998 51.3616 82.1586 54.1667 79.8798 54.1667H65.5925C63.709 54.1667 62.1821 52.6121 62.1821 50.6945V36.1481C62.1821 33.8281 64.9372 32.6662 66.5486 34.3067M81.6884 49.7211L66.5486 34.3067M95.9433 51.1157L72.9668 74.5088C72.218 75.2712 71.3052 75.8455 70.3007 76.1864L66.2114 77.5743C65.5448 77.8005 64.9107 77.1549 65.1329 76.4762L66.496 72.3128C66.8308 71.29 67.395 70.3607 68.1437 69.5984L91.1203 46.2053M95.9433 51.1157C97.2752 49.7597 97.2752 47.5612 95.9433 46.2053C94.6115 44.8493 92.4521 44.8493 91.1203 46.2053M95.9433 51.1157L74.398 73.0514C72.943 74.5328 70.6135 74.6346 69.0345 73.2912M91.1203 46.2053L69.2168 68.5056C67.9599 69.7853 67.8558 71.8251 68.9758 73.2305M68.9758 73.2305Lnan nanM68.9758 73.2305C68.9934 73.2526 69.0131 73.273 69.0345 73.2912M69.0345 73.2912Lnan nanM91.1689 48.9584L92.674 50.5442C93.7081 51.6339 95.4188 51.6488 96.4712 50.5774C97.5109 49.5188 97.5109 47.8025 96.4712 46.7439L95.3888 45.642C94.3626 44.5972 92.6988 44.5972 91.6726 45.642L91.1111 46.2137C90.3597 46.9787 90.386 48.2269 91.1689 48.9584ZM91.1689 48.9584Lnan nanM75.8234 102.778H31.4883C29.6048 102.778 28.0779 101.223 28.0779 99.3056V40.2778C28.0779 38.3602 29.6048 36.8056 31.4883 36.8056H62.7669C63.6714 36.8056 64.5389 37.1714 65.1784 37.8226L78.2349 51.1157C78.8744 51.7669 79.2337 52.6501 79.2337 53.571V99.3056C79.2337 101.223 77.7069 102.778 75.8234 102.778ZM88.7088 43.7499L65.7322 67.143C64.6091 68.2865 63.7629 69.6805 63.2606 71.2147L61.8975 75.3781C60.7866 78.7712 63.9572 81.9992 67.2898 80.8682L71.3791 79.4804C72.886 78.969 74.2552 78.1074 75.3783 76.964L98.3548 53.5708C101.019 50.8589 101.019 46.4619 98.3548 43.7499C95.6911 41.0379 91.3725 41.0379 88.7088 43.7499ZM88.7702 51.4278L90.2215 52.957C92.5803 55.4424 96.4823 55.4765 98.8827 53.0326C101.254 50.618 101.254 46.7033 98.8827 44.2887L97.8003 43.1868C95.4423 40.786 91.6191 40.786 89.2611 43.1868L88.6996 43.7585C86.6059 45.8901 86.6485 49.3493 88.7702 51.4278ZM73.6585 73.8138L68.7164 68.782C68.3245 68.383 67.6815 68.383 67.2896 68.782L66.2797 69.8102C65.8976 70.1992 65.8976 70.8226 66.2797 71.2116L71.2218 76.2433C71.6138 76.6424 72.2568 76.6424 72.6487 76.2433L73.6585 75.2152C74.0406 74.8262 74.0406 74.2028 73.6585 73.8138ZM75.4376 50.6945H66.5925C66.0402 50.6945 65.5925 50.2468 65.5925 49.6945V40.689C65.5925 39.7938 66.6786 39.3496 67.306 39.9883L76.151 48.9937C76.7723 49.6263 76.3242 50.6945 75.4376 50.6945Z" stroke="#DDDDDD" stroke-width="13.3"/>
    </g>
    <path d="M24.6675 40.2778C24.6675 36.4425 27.7212 33.3334 31.4883 33.3334H62.7669C64.5759 33.3334 66.3108 34.065 67.5899 35.3674L74.1182 42.0139L80.6464 48.6605C81.9255 49.9628 82.6441 51.7292 82.6441 53.571V99.3056C82.6441 103.141 79.5904 106.25 75.8234 106.25H31.4883C27.7212 106.25 24.6675 103.141 24.6675 99.3056V40.2778Z" fill="#E5E5E5"/>
    <path fill-rule="evenodd" clip-rule="evenodd" d="M31.4883 102.778H75.8234C77.7069 102.778 79.2337 101.223 79.2337 99.3056V53.571C79.2337 52.6501 78.8744 51.7669 78.2349 51.1157L65.1784 37.8226C64.5389 37.1714 63.6714 36.8056 62.7669 36.8056H31.4883C29.6048 36.8056 28.0779 38.3602 28.0779 40.2778V99.3056C28.0779 101.223 29.6048 102.778 31.4883 102.778ZM31.4883 33.3334C27.7212 33.3334 24.6675 36.4425 24.6675 40.2778V99.3056C24.6675 103.141 27.7212 106.25 31.4883 106.25H75.8234C79.5904 106.25 82.6441 103.141 82.6441 99.3056V53.571C82.6441 51.7292 81.9255 49.9628 80.6464 48.6605L67.5899 35.3674C66.3108 34.065 64.5759 33.3334 62.7669 33.3334H31.4883Z" fill="#666666"/>
    <path d="M62.1821 36.1481C62.1821 33.8281 64.9372 32.6662 66.5486 34.3067L74.1182 42.0139L81.6884 49.7211C83.2998 51.3616 82.1586 54.1667 79.8798 54.1667H65.5925C63.709 54.1667 62.1821 52.6121 62.1821 50.6945V36.1481Z" fill="#B6B6B6"/>
    <path fill-rule="evenodd" clip-rule="evenodd" d="M65.5925 38.2438V50.6945H77.8215L65.5925 38.2438ZM66.5486 34.3067C64.9372 32.6662 62.1821 33.8281 62.1821 36.1481V50.6945C62.1821 52.6121 63.709 54.1667 65.5925 54.1667H79.8798C82.1586 54.1667 83.2998 51.3616 81.6884 49.7211L66.5486 34.3067Z" fill="#666666"/>
    <path d="M72.9668 74.5088C72.218 75.2712 71.3052 75.8455 70.3007 76.1864L66.2114 77.5743C65.5448 77.8005 64.9107 77.1549 65.1329 76.4762L66.496 72.3128C66.8308 71.29 67.395 70.3607 68.1437 69.5984L91.1203 46.2053C92.4521 44.8493 94.6115 44.8493 95.9433 46.2053C97.2752 47.5612 97.2752 49.7597 95.9433 51.1157L72.9668 74.5088Z" fill="white"/>
    <path d="M72.9668 74.5088C72.218 75.2712 71.3052 75.8455 70.3007 76.1864L66.2114 77.5743C65.5448 77.8005 64.9107 77.1549 65.1329 76.4762L66.496 72.3128C66.8308 71.29 67.395 70.3607 68.1437 69.5984L91.1203 46.2053C92.4521 44.8493 94.6115 44.8493 95.9433 46.2053C97.2752 47.5612 97.2752 49.7597 95.9433 51.1157L72.9668 74.5088Z" fill="white"/>
    <path fill-rule="evenodd" clip-rule="evenodd" d="M65.7322 67.143L88.7088 43.7499C91.3725 41.0379 95.6911 41.0379 98.3548 43.7499C101.019 46.4619 101.019 50.8589 98.3548 53.5708L75.3783 76.964C74.2552 78.1074 72.886 78.969 71.3791 79.4804L67.2898 80.8682C63.9572 81.9992 60.7866 78.7712 61.8975 75.3781L63.2606 71.2147C63.7629 69.6805 64.6091 68.2865 65.7322 67.143ZM70.3007 76.1864C71.3052 75.8455 72.218 75.2712 72.9668 74.5088L95.9433 51.1157C97.2752 49.7597 97.2752 47.5612 95.9433 46.2053C94.6115 44.8493 92.4521 44.8493 91.1203 46.2053L68.1437 69.5984C67.395 70.3607 66.8308 71.29 66.496 72.3128L65.1329 76.4762C64.9107 77.1549 65.5448 77.8005 66.2114 77.5743L70.3007 76.1864Z" fill="#666666"/>
    <path d="M74.398 73.0514C72.943 74.5328 70.6135 74.6346 69.0345 73.2912C69.0131 73.273 68.9934 73.2526 68.9758 73.2305C67.8558 71.8251 67.9599 69.7853 69.2168 68.5056L91.1203 46.2053C92.4521 44.8493 94.6115 44.8493 95.9433 46.2053C97.2752 47.5612 97.2752 49.7597 95.9433 51.1157L74.398 73.0514Z" fill="#B6B6B6"/>
    <path fill-rule="evenodd" clip-rule="evenodd" d="M91.1689 48.9584L92.674 50.5442C93.7081 51.6339 95.4188 51.6488 96.4712 50.5774C97.5109 49.5188 97.5109 47.8025 96.4712 46.7439L95.3888 45.642C94.3626 44.5972 92.6988 44.5972 91.6726 45.642L91.1111 46.2137C90.3597 46.9787 90.386 48.2269 91.1689 48.9584ZM88.7702 51.4278L90.2215 52.957C92.5803 55.4424 96.4823 55.4765 98.8827 53.0326C101.254 50.618 101.254 46.7033 98.8827 44.2887L97.8003 43.1868C95.4423 40.786 91.6191 40.786 89.2611 43.1868L88.6996 43.7585C86.6059 45.8901 86.6485 49.3493 88.7702 51.4278Z" fill="#666666"/>
    <path d="M96.4712 50.5774C95.4188 51.6488 93.7081 51.6339 92.674 50.5442L91.1689 48.9584C90.386 48.2269 90.3597 46.9787 91.1111 46.2137L91.6726 45.642C92.6988 44.5972 94.3626 44.5972 95.3888 45.642L96.4712 46.7439C97.5109 47.8025 97.5109 49.5188 96.4712 50.5774Z" fill="#E5E5E5"/>
    <path d="M68.003 68.0557L74.3468 74.5145L71.9353 76.9697L65.5915 70.5109L68.003 68.0557Z" fill="#666666"/>
    <path d="M24.6675 40.2778C24.6675 36.4425 27.7212 33.3334 31.4883 33.3334H62.7669C64.5759 33.3334 66.3108 34.065 67.5899 35.3674L74.1182 42.0139L80.6464 48.6605C81.9255 49.9628 82.6441 51.7292 82.6441 53.571V99.3056C82.6441 103.141 79.5904 106.25 75.8234 106.25H31.4883C27.7212 106.25 24.6675 103.141 24.6675 99.3056V40.2778Z" fill="#EDF8F4"/>
    <path fill-rule="evenodd" clip-rule="evenodd" d="M31.4883 102.778H75.8234C77.7069 102.778 79.2337 101.223 79.2337 99.3056V53.571C79.2337 52.6501 78.8744 51.7669 78.2349 51.1157L65.1784 37.8226C64.5389 37.1714 63.6714 36.8056 62.7669 36.8056H31.4883C29.6048 36.8056 28.0779 38.3602 28.0779 40.2778V99.3056C28.0779 101.223 29.6048 102.778 31.4883 102.778ZM31.4883 33.3334C27.7212 33.3334 24.6675 36.4425 24.6675 40.2778V99.3056C24.6675 103.141 27.7212 106.25 31.4883 106.25H75.8234C79.5904 106.25 82.6441 103.141 82.6441 99.3056V53.571C82.6441 51.7292 81.9255 49.9628 80.6464 48.6605L67.5899 35.3674C66.3108 34.065 64.5759 33.3334 62.7669 33.3334H31.4883Z" fill="#66C2A3"/>
    <path d="M62.1821 36.1481C62.1821 33.8281 64.9372 32.6662 66.5486 34.3067L74.1182 42.0139L81.6884 49.7211C83.2998 51.3616 82.1586 54.1667 79.8798 54.1667H65.5925C63.709 54.1667 62.1821 52.6121 62.1821 50.6945V36.1481Z" fill="#21A67A"/>
    <path fill-rule="evenodd" clip-rule="evenodd" d="M65.5925 38.2438V50.6945H77.8215L65.5925 38.2438ZM66.5486 34.3067C64.9372 32.6662 62.1821 33.8281 62.1821 36.1481V50.6945C62.1821 52.6121 63.709 54.1667 65.5925 54.1667H79.8798C82.1586 54.1667 83.2998 51.3616 81.6884 49.7211L66.5486 34.3067Z" fill="#66C2A3"/>
    <path d="M72.9663 74.5088C72.2175 75.2712 71.3047 75.8455 70.3002 76.1864L66.2109 77.5743C65.5443 77.8005 64.9102 77.1549 65.1324 76.4762L66.4955 72.3128C66.8304 71.29 67.3945 70.3607 68.1433 69.5984L91.1198 46.2053C92.4516 44.8493 94.611 44.8493 95.9428 46.2053C97.2747 47.5612 97.2747 49.7597 95.9428 51.1157L72.9663 74.5088Z" fill="#EDF8F4"/>
    <path d="M72.9663 74.5088C72.2175 75.2712 71.3047 75.8455 70.3002 76.1864L66.2109 77.5743C65.5443 77.8005 64.9102 77.1549 65.1324 76.4762L66.4955 72.3128C66.8304 71.29 67.3945 70.3607 68.1433 69.5984L91.1198 46.2053C92.4516 44.8493 94.611 44.8493 95.9428 46.2053C97.2747 47.5612 97.2747 49.7597 95.9428 51.1157L72.9663 74.5088Z" fill="#EDF8F4"/>
    <path fill-rule="evenodd" clip-rule="evenodd" d="M65.7317 67.143L88.7083 43.7499C91.372 41.0379 95.6907 41.0379 98.3543 43.7499C101.018 46.4619 101.018 50.8589 98.3543 53.5708L75.3778 76.964C74.2547 78.1074 72.8855 78.969 71.3786 79.4804L67.2893 80.8682C63.9567 81.9992 60.7862 78.7712 61.897 75.3781L63.2601 71.2147C63.7624 69.6805 64.6086 68.2865 65.7317 67.143ZM70.3002 76.1864C71.3047 75.8455 72.2175 75.2712 72.9663 74.5088L95.9428 51.1157C97.2747 49.7597 97.2747 47.5612 95.9428 46.2053C94.611 44.8493 92.4516 44.8493 91.1198 46.2053L68.1433 69.5984C67.3945 70.3607 66.8304 71.29 66.4955 72.3128L65.1324 76.4762C64.9102 77.1549 65.5443 77.8005 66.2109 77.5743L70.3002 76.1864Z" fill="#21A67A"/>
    <path d="M74.3975 73.0514C72.9425 74.5328 70.613 74.6346 69.0341 73.2912C69.0126 73.273 68.9929 73.2526 68.9753 73.2305C67.8553 71.8251 67.9594 69.7853 69.2163 68.5056L91.1198 46.2053C92.4516 44.8493 94.611 44.8493 95.9428 46.2053C97.2747 47.5612 97.2747 49.7597 95.9428 51.1157L74.3975 73.0514Z" fill="#C1E6D9"/>
    <path fill-rule="evenodd" clip-rule="evenodd" d="M91.1684 48.9584L92.6735 50.5442C93.7076 51.6339 95.4183 51.6488 96.4707 50.5774C97.5104 49.5188 97.5104 47.8025 96.4707 46.7439L95.3883 45.642C94.3621 44.5972 92.6983 44.5972 91.6721 45.642L91.1106 46.2137C90.3592 46.9787 90.3856 48.2269 91.1684 48.9584ZM88.7697 51.4278L90.221 52.957C92.5798 55.4424 96.4818 55.4765 98.8822 53.0326C101.254 50.618 101.254 46.7033 98.8822 44.2887L97.7999 43.1868C95.4418 40.786 91.6186 40.786 89.2606 43.1868L88.6991 43.7585C86.6054 45.8901 86.648 49.3493 88.7697 51.4278Z" fill="#21A67A"/>
    <path d="M96.4707 50.5774C95.4183 51.6488 93.7076 51.6339 92.6735 50.5442L91.1684 48.9584C90.3856 48.2269 90.3592 46.9787 91.1106 46.2137L91.6721 45.642C92.6983 44.5972 94.3621 44.5972 95.3883 45.642L96.4707 46.7439C97.5104 47.8025 97.5104 49.5188 96.4707 50.5774Z" fill="#EDF8F4"/>
    <path d="M68.0025 68.0557L74.3463 74.5145L71.9348 76.9697L65.591 70.5109L68.0025 68.0557Z" fill="#21A67A"/>
  </g>
  <defs>
    <clipPath id="clip0_301_8206">
      <rect width="115" height="97" fill="white" transform="translate(0.333496)"/>
    </clipPath>
  </defs>
</svg>
