<svg width="121" height="101" viewBox="0 0 121 101" fill="none" xmlns="http://www.w3.org/2000/svg">
  <g clip-path="url(#clip0_301_8252)">
    <path opacity="0.5" d="M89.2764 53.6985C89.3374 53.1087 88.8747 52.5957 88.2817 52.5957H77.5431C76.9908 52.5957 76.5431 52.148 76.5431 51.5957V44.2313C76.5431 41.0901 78.6404 40.3578 80.1175 40.3578C81.2595 40.3578 86.0754 40.3578 88.1858 40.3578C88.7381 40.3578 89.1837 39.9101 89.1837 39.3578V27.5445C89.1837 26.9937 88.7383 26.5467 88.1876 26.5445L76.6977 26.5C62.8371 26.5 59.6829 36.7995 59.6829 43.3906V51.5957C59.6829 52.148 59.2352 52.5957 58.6829 52.5957H52.667C52.1147 52.5957 51.667 53.0434 51.667 53.5957V65.8255C51.667 66.3778 52.1147 66.8255 52.667 66.8255H58.6829C59.2352 66.8255 59.6829 67.2708 59.6829 67.8231C59.6829 83.5596 59.6829 101.694 59.6829 106.093C59.6829 106.645 60.1306 107.091 60.6829 107.091H75.5431C76.0954 107.091 76.5431 106.644 76.5431 106.092C76.5431 101.671 76.5431 83.3942 76.5431 67.8228C76.5431 67.2705 76.9908 66.8255 77.5431 66.8255H87.018C87.5305 66.8255 87.96 66.438 88.0127 65.9283L89.2764 53.6985Z" fill="#1877F2" stroke="#EDEDED" stroke-width="26.6"/>
    <path opacity="0.5" d="M89.2764 53.6985C89.3374 53.1087 88.8747 52.5957 88.2817 52.5957H77.5431C76.9908 52.5957 76.5431 52.148 76.5431 51.5957V44.2313C76.5431 41.0901 78.6404 40.3578 80.1175 40.3578C81.2595 40.3578 86.0754 40.3578 88.1858 40.3578C88.7381 40.3578 89.1837 39.9101 89.1837 39.3578V27.5445C89.1837 26.9937 88.7383 26.5467 88.1876 26.5445L76.6977 26.5C62.8371 26.5 59.6829 36.7995 59.6829 43.3906V51.5957C59.6829 52.148 59.2352 52.5957 58.6829 52.5957H52.667C52.1147 52.5957 51.667 53.0434 51.667 53.5957V65.8255C51.667 66.3778 52.1147 66.8255 52.667 66.8255H58.6829C59.2352 66.8255 59.6829 67.2708 59.6829 67.8231C59.6829 83.5596 59.6829 101.694 59.6829 106.093C59.6829 106.645 60.1306 107.091 60.6829 107.091H75.5431C76.0954 107.091 76.5431 106.644 76.5431 106.092C76.5431 101.671 76.5431 83.3942 76.5431 67.8228C76.5431 67.2705 76.9908 66.8255 77.5431 66.8255H87.018C87.5305 66.8255 87.96 66.438 88.0127 65.9283L89.2764 53.6985Z" fill="#1877F2" stroke="#DDDDDD" stroke-width="13.3"/>
    <path d="M89.3904 52.5957H76.5431V44.2313C76.5431 41.0901 78.6404 40.3578 80.1175 40.3578C81.5913 40.3578 89.1837 40.3578 89.1837 40.3578V26.5484L76.6977 26.5C62.8371 26.5 59.6829 36.7995 59.6829 43.3906V52.5957H51.667V66.8255H59.6829C59.6829 85.0873 59.6829 107.091 59.6829 107.091H76.5431C76.5431 107.091 76.5431 84.8704 76.5431 66.8255H87.92L89.3904 52.5957Z" fill="#1877F2"/>
  </g>
  <defs>
    <clipPath id="clip0_301_8252">
      <rect width="120" height="100" fill="white" transform="translate(0.666992 0.5)"/>
    </clipPath>
  </defs>
</svg>
