<svg width="35" height="34" viewBox="0 0 35 34" fill="none" xmlns="http://www.w3.org/2000/svg">
  <path d="M5.85352 11.8827V14.2294H8.20018V11.8827H5.85352Z" fill="#FFDD00"/>
  <path d="M2.3335 29.0133C2.3335 30.3093 3.38413 31.36 4.68016 31.36H28.1468C29.4429 31.36 30.4935 30.3093 30.4935 29.0133V16.3413C30.4935 15.2438 29.7327 14.2928 28.662 14.0519L26.2315 13.505C25.9464 13.4409 25.6759 13.3241 25.4337 13.1606L21.7018 10.6416C21.314 10.3798 20.8568 10.24 20.3889 10.24H12.6207C12.0409 10.24 11.4817 10.4546 11.0508 10.8424L8.69675 12.9611C8.37214 13.2532 7.97245 13.449 7.54263 13.5263L4.26444 14.1164C3.14674 14.3176 2.3335 15.2903 2.3335 16.426V29.0133Z" fill="#E6E6E6"/>
  <path fill-rule="evenodd" clip-rule="evenodd" d="M28.1468 30.08H4.68016C4.09106 30.08 3.6135 29.6024 3.6135 29.0133V16.426C3.6135 15.9097 3.98315 15.4676 4.4912 15.3762L7.76939 14.7861C8.43365 14.6665 9.05136 14.364 9.55303 13.9125L11.9071 11.7938C12.103 11.6175 12.3572 11.52 12.6207 11.52H20.3889C20.6016 11.52 20.8094 11.5836 20.9857 11.7025L24.7176 14.2216C25.0918 14.4742 25.51 14.6547 25.9505 14.7538L28.381 15.3007C28.8677 15.4102 29.2135 15.8424 29.2135 16.3413V29.0133C29.2135 29.6024 28.7359 30.08 28.1468 30.08ZM4.68016 31.36C3.38413 31.36 2.3335 30.3093 2.3335 29.0133V16.426C2.3335 15.2903 3.14674 14.3176 4.26444 14.1164L7.54263 13.5263C7.97245 13.449 8.37214 13.2532 8.69675 12.9611L11.0508 10.8424C11.4817 10.4546 12.0409 10.24 12.6207 10.24H20.3889C20.8568 10.24 21.314 10.3798 21.7018 10.6416L25.4337 13.1606C25.6759 13.3241 25.9464 13.4409 26.2315 13.505L28.662 14.0519C29.7327 14.2928 30.4935 15.2438 30.4935 16.3413V29.0133C30.4935 30.3093 29.4429 31.36 28.1468 31.36H4.68016Z" fill="#4D4D4D"/>
  <path d="M27.6777 19.392V25.728C27.6777 26.8944 28.6233 27.84 29.7897 27.84V17.28C28.6233 17.28 27.6777 18.2255 27.6777 19.392Z" fill="#B6B6B6"/>
  <path fill-rule="evenodd" clip-rule="evenodd" d="M29.1496 18.0661C28.6572 18.3041 28.3176 18.8084 28.3176 19.392V25.728C28.3176 26.3116 28.6572 26.8159 29.1496 27.054V18.0661ZM27.0376 19.392C27.0376 17.8721 28.2697 16.64 29.7896 16.64H30.4296V28.48H29.7896C28.2697 28.48 27.0376 27.2479 27.0376 25.728V19.392Z" fill="#4D4D4D"/>
  <path d="M5.14941 25.728L5.14941 19.392C5.14941 18.2255 4.20384 17.28 3.03741 17.28L3.03741 27.84C4.20384 27.84 5.14941 26.8944 5.14941 25.728Z" fill="#B6B6B6"/>
  <path fill-rule="evenodd" clip-rule="evenodd" d="M3.67755 27.0539C4.16993 26.8158 4.50955 26.3116 4.50955 25.728L4.50955 19.392C4.50955 18.8084 4.16993 18.3041 3.67755 18.066L3.67755 27.0539ZM5.78955 25.728C5.78955 27.2479 4.55744 28.48 3.03755 28.48L2.39755 28.48L2.39755 16.64L3.03755 16.64C4.55744 16.64 5.78955 17.8721 5.78955 19.392L5.78955 25.728Z" fill="#4D4D4D"/>
  <path d="M21.3413 22.208C21.3413 24.9296 19.135 27.136 16.4134 27.136C13.6917 27.136 11.4854 24.9296 11.4854 22.208C11.4854 19.4863 13.6917 17.28 16.4134 17.28C19.135 17.28 21.3413 19.4863 21.3413 22.208Z" fill="white"/>
  <path fill-rule="evenodd" clip-rule="evenodd" d="M16.4134 25.856C18.4281 25.856 20.0613 24.2227 20.0613 22.208C20.0613 20.1932 18.4281 18.56 16.4134 18.56C14.3986 18.56 12.7654 20.1932 12.7654 22.208C12.7654 24.2227 14.3986 25.856 16.4134 25.856ZM16.4134 27.136C19.135 27.136 21.3413 24.9296 21.3413 22.208C21.3413 19.4863 19.135 17.28 16.4134 17.28C13.6917 17.28 11.4854 19.4863 11.4854 22.208C11.4854 24.9296 13.6917 27.136 16.4134 27.136Z" fill="#4D4D4D"/>
  <path d="M23.2903 5.59339C23.4729 5.05505 24.2343 5.05505 24.4169 5.59339L25.6939 9.35799C25.7495 9.52203 25.8739 9.65366 26.0345 9.7185L29.6252 11.1679C30.1214 11.3682 30.1214 12.0708 29.6252 12.2711L26.0345 13.7205C25.8739 13.7854 25.7495 13.917 25.6939 14.081L24.4169 17.8456C24.2343 18.384 23.4729 18.384 23.2903 17.8456L22.0134 14.081C21.9578 13.917 21.8334 13.7854 21.6728 13.7205L18.0821 12.2711C17.5859 12.0708 17.5859 11.3682 18.0821 11.1679L21.6728 9.7185C21.8334 9.65366 21.9578 9.52203 22.0134 9.35799L23.2903 5.59339Z" fill="#FFDD00"/>
  <path fill-rule="evenodd" clip-rule="evenodd" d="M26.7326 8.71748L25.5433 5.21127C24.9955 3.59625 22.7113 3.59624 22.1634 5.21127L20.9741 8.71748L17.6365 10.0648C16.1479 10.6657 16.1478 12.7733 17.6365 13.3743L20.9741 14.7216L22.1634 18.2278C22.7113 19.8428 24.9955 19.8428 25.5433 18.2278L26.7326 14.7216L30.0702 13.3743C31.5589 12.7733 31.5589 10.6657 30.0702 10.0648L26.7326 8.71748ZM24.4167 5.59341C24.2341 5.05507 23.4727 5.05507 23.29 5.59341L22.0131 9.35801C21.9575 9.52204 21.8331 9.65368 21.6725 9.71852L18.0818 11.168C17.5856 11.3683 17.5856 12.0708 18.0818 12.2711L21.6725 13.7206C21.8331 13.7854 21.9575 13.917 22.0131 14.0811L23.29 17.8457C23.4727 18.384 24.2341 18.384 24.4167 17.8457L25.6936 14.0811C25.7492 13.917 25.8736 13.7854 26.0342 13.7206L29.6249 12.2711C30.1211 12.0708 30.1211 11.3683 29.6249 11.168L26.0342 9.71852C25.8736 9.65368 25.7492 9.52204 25.6936 9.35801L24.4167 5.59341Z" fill="white"/>
  <path d="M23.2903 5.59339C23.4729 5.05505 24.2343 5.05505 24.4169 5.59339L25.6939 9.35799C25.7495 9.52203 25.8739 9.65366 26.0345 9.7185L29.6252 11.1679C30.1214 11.3682 30.1214 12.0708 29.6252 12.2711L26.0345 13.7205C25.8739 13.7854 25.7495 13.917 25.6939 14.081L24.4169 17.8456C24.2343 18.384 23.4729 18.384 23.2903 17.8456L22.0134 14.081C21.9578 13.917 21.8334 13.7854 21.6728 13.7205L18.0821 12.2711C17.5859 12.0708 17.5859 11.3682 18.0821 11.1679L21.6728 9.7185C21.8334 9.65366 21.9578 9.52203 22.0134 9.35799L23.2903 5.59339Z" fill="#FFDD00"/>
  <path fill-rule="evenodd" clip-rule="evenodd" d="M23.8536 7.63623L23.14 9.74013C22.9731 10.2322 22.5999 10.6271 22.1181 10.8217L19.8939 11.7195L22.1181 12.6174C22.5999 12.8119 22.9731 13.2068 23.14 13.6989L23.8536 15.8028L24.5673 13.6989C24.7342 13.2068 25.1073 12.8119 25.5892 12.6174L27.8134 11.7195L25.5892 10.8217C25.1073 10.6271 24.7342 10.2322 24.5673 9.74013L23.8536 7.63623ZM24.4169 5.59339C24.2343 5.05505 23.4729 5.05505 23.2903 5.59339L22.0134 9.35799C21.9578 9.52203 21.8334 9.65366 21.6728 9.7185L18.0821 11.1679C17.5859 11.3682 17.5859 12.0708 18.0821 12.2711L21.6728 13.7205C21.8334 13.7854 21.9578 13.917 22.0134 14.081L23.2903 17.8456C23.4729 18.384 24.2343 18.384 24.4169 17.8456L25.6939 14.081C25.7495 13.917 25.8739 13.7854 26.0345 13.7205L29.6252 12.2711C30.1214 12.0708 30.1214 11.3682 29.6252 11.1679L26.0345 9.7185C25.8739 9.65366 25.7495 9.52203 25.6939 9.35799L24.4169 5.59339Z" fill="#FFF086"/>
</svg>
