<svg width="33" height="32" viewBox="0 0 33 32" fill="none" xmlns="http://www.w3.org/2000/svg">
  <path d="M7.1665 18.3727C7.1665 17.8907 7.55724 17.5 8.03924 17.5H26.2938C26.7758 17.5 27.1665 17.8907 27.1665 18.3727V24.7895C27.1665 25.7342 26.4007 26.5 25.456 26.5H8.87703C7.93233 26.5 7.1665 25.7342 7.1665 24.7895V18.3727Z" fill="#E5E5E5" stroke="#4D4D4D"/>
  <path d="M6.1665 11.1053C6.1665 10.771 6.43749 10.5 6.77177 10.5H27.5612C27.8955 10.5 28.1665 10.771 28.1665 11.1053V18.8947C28.1665 19.229 27.8955 19.5 27.5612 19.5H6.77177C6.43749 19.5 6.1665 19.229 6.1665 18.8947V11.1053Z" fill="#E5E5E5" stroke="#4D4D4D"/>
  <path d="M12.1665 8C12.1665 7.17157 12.8381 6.5 13.6665 6.5H20.6665C21.4949 6.5 22.1665 7.17157 22.1665 8V10.5H12.1665V8Z" fill="#E5E5E5" stroke="#4D4D4D"/>
  <mask id="path-4-inside-1_302_20652" fill="white">
    <path d="M13.6665 8.3C13.6665 8.13431 13.8008 8 13.9665 8H20.3665C20.5322 8 20.6665 8.13431 20.6665 8.3V11H13.6665V8.3Z"/>
  </mask>
  <path d="M13.6665 8.3C13.6665 8.13431 13.8008 8 13.9665 8H20.3665C20.5322 8 20.6665 8.13431 20.6665 8.3V11H13.6665V8.3Z" fill="white" stroke="#4D4D4D" stroke-width="2" mask="url(#path-4-inside-1_302_20652)"/>
  <mask id="path-5-inside-2_302_20652" fill="white">
    <rect x="15.6665" y="18" width="3" height="4" rx="0.915158"/>
  </mask>
  <rect x="15.6665" y="18" width="3" height="4" rx="0.915158" fill="#FFDD00" stroke="#4D4D4D" stroke-width="2" mask="url(#path-5-inside-2_302_20652)"/>
</svg>
