<svg width="33" height="32" viewBox="0 0 33 32" fill="none" xmlns="http://www.w3.org/2000/svg">
  <path d="M6.6665 12.9C6.6665 12.4029 7.06945 12 7.5665 12H25.7665C26.2636 12 26.6665 12.4029 26.6665 12.9V26.1C26.6665 26.5971 26.2636 27 25.7665 27H7.5665C7.06945 27 6.6665 26.5971 6.6665 26.1V12.9Z" fill="#E5E5E5"/>
  <path fill-rule="evenodd" clip-rule="evenodd" d="M7.6665 13V26H25.6665V13H7.6665ZM7.5665 12C7.06945 12 6.6665 12.4029 6.6665 12.9V26.1C6.6665 26.5971 7.06945 27 7.5665 27H25.7665C26.2636 27 26.6665 26.5971 26.6665 26.1V12.9C26.6665 12.4029 26.2636 12 25.7665 12H7.5665Z" fill="#4D4D4D"/>
  <path d="M8.6665 18.3316C8.6665 17.5962 9.26267 17 9.99808 17H16.3349C17.0703 17 17.6665 17.5962 17.6665 18.3316V23.6684C17.6665 24.4038 17.0703 25 16.3349 25H9.99808C9.26267 25 8.6665 24.4038 8.6665 23.6684V18.3316Z" fill="white"/>
  <path fill-rule="evenodd" clip-rule="evenodd" d="M16.3349 18H9.99808C9.81496 18 9.6665 18.1485 9.6665 18.3316V23.6684C9.6665 23.8515 9.81496 24 9.99808 24H16.3349C16.5181 24 16.6665 23.8515 16.6665 23.6684V18.3316C16.6665 18.1485 16.5181 18 16.3349 18ZM9.99808 17C9.26267 17 8.6665 17.5962 8.6665 18.3316V23.6684C8.6665 24.4038 9.26267 25 9.99808 25H16.3349C17.0703 25 17.6665 24.4038 17.6665 23.6684V18.3316C17.6665 17.5962 17.0703 17 16.3349 17H9.99808Z" fill="#4D4D4D"/>
  <path d="M18.6665 19C18.6665 17.8954 19.5619 17 20.6665 17H22.6665C23.7711 17 24.6665 17.8954 24.6665 19V27H18.6665V19Z" fill="white"/>
  <path fill-rule="evenodd" clip-rule="evenodd" d="M22.6665 18H20.6665C20.1142 18 19.6665 18.4477 19.6665 19V26H23.6665V19C23.6665 18.4477 23.2188 18 22.6665 18ZM20.6665 17C19.5619 17 18.6665 17.8954 18.6665 19V27H24.6665V19C24.6665 17.8954 23.7711 17 22.6665 17H20.6665Z" fill="#4D4D4D"/>
  <path fill-rule="evenodd" clip-rule="evenodd" d="M8.22168 15.2C9.94757 15.2 11.3467 13.8569 11.3467 12.2C8.34668 12.2 7.59668 12.2 5.09668 12.2C5.09668 13.8569 6.49579 15.2 8.22168 15.2Z" fill="#FFDD00"/>
  <path fill-rule="evenodd" clip-rule="evenodd" d="M11.3467 12.2C11.3467 12.5506 11.284 12.8872 11.1689 13.2C10.7399 14.3652 9.58232 15.2 8.22168 15.2C6.86104 15.2 5.70349 14.3652 5.2745 13.2C5.15934 12.8872 5.09668 12.5506 5.09668 12.2H11.3467ZM6.38274 13.2C6.74405 13.7886 7.41677 14.2 8.22168 14.2C9.02659 14.2 9.69931 13.7886 10.0606 13.2H6.38274Z" fill="#4D4D4D"/>
  <path fill-rule="evenodd" clip-rule="evenodd" d="M19.4214 15.2C21.1473 15.2 22.5464 13.8569 22.5464 12.2C19.5464 12.2 18.7964 12.2 16.2964 12.2C16.2964 13.8569 17.6955 15.2 19.4214 15.2Z" fill="#FFDD00"/>
  <path fill-rule="evenodd" clip-rule="evenodd" d="M22.5464 12.2C22.5464 12.5506 22.4837 12.8872 22.3686 13.2C21.9396 14.3652 20.782 15.2 19.4214 15.2C18.0607 15.2 16.9032 14.3652 16.4742 13.2C16.359 12.8872 16.2964 12.5506 16.2964 12.2H22.5464ZM17.5824 13.2C17.9438 13.7886 18.6165 14.2 19.4214 14.2C20.2263 14.2 20.899 13.7886 21.2603 13.2H17.5824Z" fill="#4D4D4D"/>
  <path fill-rule="evenodd" clip-rule="evenodd" d="M13.8218 15.2C15.5477 15.2 16.9468 13.8569 16.9468 12.2C13.9468 12.2 13.1968 12.2 10.6968 12.2C10.6968 13.8569 12.0959 15.2 13.8218 15.2Z" fill="#FFDD00"/>
  <path fill-rule="evenodd" clip-rule="evenodd" d="M16.9468 12.2C16.9468 12.5506 16.8841 12.8872 16.769 13.2C16.34 14.3652 15.1824 15.2 13.8218 15.2C12.4611 15.2 11.3036 14.3652 10.8746 13.2C10.7594 12.8872 10.6968 12.5506 10.6968 12.2H16.9468ZM11.9828 13.2C12.3442 13.7886 13.0169 14.2 13.8218 14.2C14.6267 14.2 15.2994 13.7886 15.6607 13.2H11.9828Z" fill="#4D4D4D"/>
  <path fill-rule="evenodd" clip-rule="evenodd" d="M25.0215 15.2C26.7474 15.2 28.1465 13.8569 28.1465 12.2C25.1465 12.2 24.3965 12.2 21.8965 12.2C21.8965 13.8569 23.2956 15.2 25.0215 15.2Z" fill="#FFDD00"/>
  <path fill-rule="evenodd" clip-rule="evenodd" d="M28.1465 12.2C28.1465 12.5506 28.0838 12.8872 27.9687 13.2C27.5397 14.3652 26.3821 15.2 25.0215 15.2C23.6608 15.2 22.5033 14.3652 22.0743 13.2C21.9591 12.8872 21.8965 12.5506 21.8965 12.2H28.1465ZM23.1825 13.2C23.5439 13.7886 24.2166 14.2 25.0215 14.2C25.8264 14.2 26.4991 13.7886 26.8604 13.2H23.1825Z" fill="#4D4D4D"/>
  <path fill-rule="evenodd" clip-rule="evenodd" d="M8.03722 6.36428C8.15074 6.14079 8.38016 6 8.63082 6H24.2803C24.5192 6 24.7398 6.12802 24.8584 6.33547L28.0975 12.0039C28.3511 12.4477 28.0306 13 27.5194 13H5.75162C5.25485 13 4.93305 12.4756 5.15802 12.0327L8.03722 6.36428Z" fill="#FFDD00"/>
  <path fill-rule="evenodd" clip-rule="evenodd" d="M8.83592 7L6.29623 12H26.9435L24.0864 7H8.83592ZM8.63082 6C8.38016 6 8.15074 6.14079 8.03722 6.36428L5.15802 12.0327C4.93305 12.4756 5.25485 13 5.75162 13H27.5194C28.0306 13 28.3511 12.4477 28.0975 12.0039L24.8584 6.33547C24.7398 6.12802 24.5192 6 24.2803 6H8.63082Z" fill="#4D4D4D"/>
  <path fill-rule="evenodd" clip-rule="evenodd" d="M12.2879 6.01492C12.5558 6.0819 12.7187 6.35337 12.6517 6.62126L11.1517 12.6213C11.0847 12.8892 10.8133 13.052 10.5454 12.9851C10.2775 12.9181 10.1146 12.6466 10.1816 12.3787L11.6816 6.37873C11.7485 6.11083 12.02 5.94795 12.2879 6.01492Z" fill="#4D4D4D"/>
  <path fill-rule="evenodd" clip-rule="evenodd" d="M16.6665 6C16.9426 6 17.1665 6.22386 17.1665 6.5V12.5C17.1665 12.7761 16.9426 13 16.6665 13C16.3904 13 16.1665 12.7761 16.1665 12.5V6.5C16.1665 6.22386 16.3904 6 16.6665 6Z" fill="#4D4D4D"/>
  <path fill-rule="evenodd" clip-rule="evenodd" d="M21.0801 6.52504C21.3521 6.47722 21.6113 6.65893 21.6591 6.9309L22.6591 12.6183C22.707 12.8903 22.5253 13.1495 22.2533 13.1973C21.9813 13.2452 21.7221 13.0635 21.6742 12.7915L20.6742 7.10408C20.6264 6.83211 20.8081 6.57286 21.0801 6.52504Z" fill="#4D4D4D"/>
</svg>
