<svg width="32" height="32" viewBox="0 0 32 32" fill="none" xmlns="http://www.w3.org/2000/svg">
  <path d="M3.25 27.7611C3.25 26.8498 4.00552 26.1111 4.9375 26.1111C5.86948 26.1111 6.625 26.8498 6.625 27.7611V29.35C6.625 30.2612 5.86948 31 4.9375 31C4.00552 31 3.25 30.2612 3.25 29.35V27.7611Z" fill="#E5E5E5"/>
  <path fill-rule="evenodd" clip-rule="evenodd" d="M5.33594 29.35V27.7611C5.33594 27.5459 5.15755 27.3715 4.9375 27.3715C4.71745 27.3715 4.53906 27.5459 4.53906 27.7611V29.35C4.53906 29.5651 4.71745 29.7396 4.9375 29.7396C5.15755 29.7396 5.33594 29.5651 5.33594 29.35ZM4.9375 26.1111C4.00552 26.1111 3.25 26.8498 3.25 27.7611V29.35C3.25 30.2612 4.00552 31 4.9375 31C5.86948 31 6.625 30.2612 6.625 29.35V27.7611C6.625 26.8498 5.86948 26.1111 4.9375 26.1111Z" fill="#4D4D4D"/>
  <path d="M17.375 27.7611C17.375 26.8498 18.1305 26.1111 19.0625 26.1111C19.9945 26.1111 20.75 26.8498 20.75 27.7611V29.35C20.75 30.2612 19.9945 31 19.0625 31C18.1305 31 17.375 30.2612 17.375 29.35V27.7611Z" fill="#E5E5E5"/>
  <path fill-rule="evenodd" clip-rule="evenodd" d="M19.4609 29.35V27.7611C19.4609 27.5459 19.2826 27.3715 19.0625 27.3715C18.8424 27.3715 18.6641 27.5459 18.6641 27.7611V29.35C18.6641 29.5651 18.8424 29.7396 19.0625 29.7396C19.2826 29.7396 19.4609 29.5651 19.4609 29.35ZM19.0625 26.1111C18.1305 26.1111 17.375 26.8498 17.375 27.7611V29.35C17.375 30.2612 18.1305 31 19.0625 31C19.9945 31 20.75 30.2612 20.75 29.35V27.7611C20.75 26.8498 19.9945 26.1111 19.0625 26.1111Z" fill="#4D4D4D"/>
  <path d="M2 13.8889C2 11.1888 4.23858 9 7 9H17C19.7614 9 22 11.1888 22 13.8889V24.8889C22 26.9139 20.3211 28.5556 18.25 28.5556H5.75C3.67893 28.5556 2 26.9139 2 24.8889V13.8889Z" fill="#E5E5E5"/>
  <path fill-rule="evenodd" clip-rule="evenodd" d="M17 10.2222H7C4.92893 10.2222 3.25 11.8638 3.25 13.8889V24.8889C3.25 26.2389 4.36929 27.3333 5.75 27.3333H18.25C19.6307 27.3333 20.75 26.2389 20.75 24.8889V13.8889C20.75 11.8638 19.0711 10.2222 17 10.2222ZM7 9C4.23858 9 2 11.1888 2 13.8889V24.8889C2 26.9139 3.67893 28.5556 5.75 28.5556H18.25C20.3211 28.5556 22 26.9139 22 24.8889V13.8889C22 11.1888 19.7614 9 17 9H7Z" fill="#4D4D4D"/>
  <path d="M4.5 15.1111C4.5 13.7611 5.61929 12.6667 7 12.6667H17C18.3807 12.6667 19.5 13.7611 19.5 15.1111V20H4.5V15.1111Z" fill="white"/>
  <path fill-rule="evenodd" clip-rule="evenodd" d="M17 13.8889H7C6.30964 13.8889 5.75 14.4361 5.75 15.1111V18.7778H18.25V15.1111C18.25 14.4361 17.6904 13.8889 17 13.8889ZM7 12.6667C5.61929 12.6667 4.5 13.7611 4.5 15.1111V20H19.5V15.1111C19.5 13.7611 18.3807 12.6667 17 12.6667H7Z" fill="#4D4D4D"/>
  <path fill-rule="evenodd" clip-rule="evenodd" d="M17.8125 25.1333C18.7445 25.1333 19.5 24.3946 19.5 23.4833C19.5 22.572 18.7445 21.8333 17.8125 21.8333C16.8805 21.8333 16.125 22.572 16.125 23.4833C16.125 24.3946 16.8805 25.1333 17.8125 25.1333Z" fill="#FFDD00"/>
  <path fill-rule="evenodd" clip-rule="evenodd" d="M17.8125 23.8729C18.0326 23.8729 18.2109 23.6985 18.2109 23.4833C18.2109 23.2682 18.0326 23.0937 17.8125 23.0937C17.5924 23.0937 17.4141 23.2682 17.4141 23.4833C17.4141 23.6985 17.5924 23.8729 17.8125 23.8729ZM19.5 23.4833C19.5 24.3946 18.7445 25.1333 17.8125 25.1333C16.8805 25.1333 16.125 24.3946 16.125 23.4833C16.125 22.572 16.8805 21.8333 17.8125 21.8333C18.7445 21.8333 19.5 22.572 19.5 23.4833Z" fill="#4D4D4D"/>
  <path fill-rule="evenodd" clip-rule="evenodd" d="M6.1875 25.1333C7.11948 25.1333 7.875 24.3946 7.875 23.4833C7.875 22.572 7.11948 21.8333 6.1875 21.8333C5.25552 21.8333 4.5 22.572 4.5 23.4833C4.5 24.3946 5.25552 25.1333 6.1875 25.1333Z" fill="#FFDD00"/>
  <path fill-rule="evenodd" clip-rule="evenodd" d="M6.1875 23.8729C6.40755 23.8729 6.58594 23.6985 6.58594 23.4833C6.58594 23.2682 6.40755 23.0937 6.1875 23.0937C5.96745 23.0937 5.78906 23.2682 5.78906 23.4833C5.78906 23.6985 5.96745 23.8729 6.1875 23.8729ZM7.875 23.4833C7.875 24.3946 7.11948 25.1333 6.1875 25.1333C5.25552 25.1333 4.5 24.3946 4.5 23.4833C4.5 22.572 5.25552 21.8333 6.1875 21.8333C7.11948 21.8333 7.875 22.572 7.875 23.4833Z" fill="#4D4D4D"/>
  <path fill-rule="evenodd" clip-rule="evenodd" d="M29.1647 13.1784V16.0253C29.1647 16.7131 28.6051 17.2727 27.9173 17.2727C20.0332 17.2727 13.6192 10.8587 13.6192 2.97468C13.6192 2.28687 14.1788 1.72728 14.8666 1.72728H17.7214C18.4092 1.72728 18.9688 2.28687 18.9688 2.97472C18.9688 3.92688 19.1181 4.86094 19.412 5.75116C19.555 6.2066 19.4357 6.69199 19.1029 7.02427L17.8222 8.72666C18.8895 10.7385 20.1382 11.9868 22.1653 13.0689L23.9132 11.7494C24.2013 11.4559 24.7039 11.339 25.1455 11.4896C26.031 11.7822 26.9655 11.9311 27.9173 11.9311C28.605 11.9311 29.1646 12.4907 29.1647 13.1784ZM23.0722 10.7611C23.7356 10.1513 24.7186 9.97821 25.5564 10.261C26.3068 10.5085 27.1024 10.6356 27.9173 10.6356C29.3205 10.6356 30.4601 11.7752 30.4601 13.1784V16.0253C30.4601 17.4286 29.3205 18.5682 27.9173 18.5682C19.3178 18.5682 12.3237 11.5742 12.3237 2.97468C12.3237 1.57141 13.4633 0.431824 14.8666 0.431824H17.7214C19.1247 0.431824 20.2643 1.5714 20.2643 2.97472M23.0722 10.7611L22.068 11.5192C20.9059 10.7957 20.085 9.97498 19.3701 8.824L20.0926 7.86355C20.7127 7.19061 20.9237 6.24124 20.648 5.36312L20.6451 5.35405L20.6422 5.34503C20.3921 4.58768 20.2643 3.79078 20.2643 2.97472" fill="white"/>
  <path d="M27.9172 11.9311C26.9655 11.9311 26.031 11.7822 25.1454 11.4896C24.7039 11.339 24.2012 11.4559 23.9132 11.7494L22.1653 13.0689C20.1382 11.9868 18.8895 10.7386 17.8222 8.72668L19.1029 7.02429C19.4356 6.692 19.555 6.20661 19.412 5.75118C19.1181 4.86096 18.9688 3.9269 18.9688 2.97474C18.9688 2.28689 18.4092 1.72729 17.7214 1.72729H14.8665C14.1787 1.72729 13.6191 2.28689 13.6191 2.9747C13.6191 10.8588 20.0332 17.2727 27.9172 17.2727C28.605 17.2727 29.1646 16.7132 29.1646 16.0253V13.1785C29.1646 12.4907 28.605 11.9311 27.9172 11.9311Z" fill="#4D4D4D"/>
  <mask id="mask0_13_20404" style="mask-type:alpha" maskUnits="userSpaceOnUse" x="21" y="2" width="8" height="8">
    <path d="M21.5 2.375H28.625V9.5H21.5V2.375Z" fill="#666666"/>
  </mask>
  <g mask="url(#mask0_13_20404)">
    <path fill-rule="evenodd" clip-rule="evenodd" d="M27.3295 9.5C27.3295 12.7196 24.7196 15.3295 21.5 15.3295C18.2804 15.3295 15.6705 12.7196 15.6705 9.5C15.6705 6.28043 18.2804 3.67045 21.5 3.67045C24.7196 3.67045 27.3295 6.28043 27.3295 9.5ZM28.625 9.5C28.625 13.435 25.435 16.625 21.5 16.625C17.565 16.625 14.375 13.435 14.375 9.5C14.375 5.56497 17.565 2.375 21.5 2.375C25.435 2.375 28.625 5.56497 28.625 9.5ZM21.5 12.7386C23.2886 12.7386 24.7386 11.2886 24.7386 9.49993C24.7386 7.71128 23.2886 6.2613 21.5 6.2613C19.7113 6.2613 18.2614 7.71128 18.2614 9.49993C18.2614 11.2886 19.7113 12.7386 21.5 12.7386ZM21.5 14.034C24.0041 14.034 26.0341 12.004 26.0341 9.49993C26.0341 6.99582 24.0041 4.96584 21.5 4.96584C18.9959 4.96584 16.9659 6.99582 16.9659 9.49993C16.9659 12.004 18.9959 14.034 21.5 14.034ZM21.5 10.1477C21.8577 10.1477 22.1477 9.85774 22.1477 9.50001C22.1477 9.14228 21.8577 8.85229 21.5 8.85229C21.1423 8.85229 20.8523 9.14228 20.8523 9.50001C20.8523 9.85774 21.1423 10.1477 21.5 10.1477ZM21.5 11.4432C22.5732 11.4432 23.4432 10.5732 23.4432 9.50001C23.4432 8.42682 22.5732 7.55683 21.5 7.55683C20.4268 7.55683 19.5568 8.42682 19.5568 9.50001C19.5568 10.5732 20.4268 11.4432 21.5 11.4432Z" fill="#4D4D4D"/>
  </g>
</svg>
