<svg width="32" height="32" viewBox="0 0 32 32" fill="none" xmlns="http://www.w3.org/2000/svg">
  <path d="M18.5 12H10.2059C8.98761 12 8 12.8954 8 14C8 15.1045 8.98761 16 10.2059 16H20.7941C22.0124 16 23 16.8954 23 18C23 19.1045 22.0124 20 20.7941 20H14.3636" stroke="#828282" stroke-linecap="round" stroke-linejoin="round"/>
  <circle cx="6.5" cy="21.5" r="5.5" stroke="white"/>
  <ellipse cx="6.5" cy="29" rx="2.75" ry="1" fill="#EDF8F4"/>
  <ellipse opacity="0.5" cx="6.5" cy="29" rx="1.75" ry="0.5" fill="#21A67A"/>
  <path d="M7.07747 28.2275C9.69844 24.9356 11 22.5009 11 20.9983C11 18.5082 8.97891 16.5 6.5 16.5C4.02109 16.5 2 18.5082 2 20.9983C2 22.5009 3.30153 24.9356 5.92246 28.2275C6.16266 28.5292 6.61594 28.5896 6.93489 28.3623C6.98884 28.3239 7.03683 28.2785 7.07747 28.2275Z" fill="#E5E5E5" stroke="#4D4D4D"/>
  <path d="M6.5 22.5C7.32843 22.5 8 21.8284 8 21C8 20.1715 7.32843 19.5 6.5 19.5C5.67157 19.5 5 20.1715 5 21C5 21.8284 5.67157 22.5 6.5 22.5Z" fill="#21A67A" stroke="#666666" stroke-width="0.5"/>
  <ellipse cx="25.5" cy="14.5" rx="2.75" ry="1" fill="#E5F4FF"/>
  <ellipse opacity="0.5" cx="25.5" cy="14.5" rx="1.75" ry="0.5" fill="#0091FF"/>
  <path d="M26.0775 13.7275C28.6984 10.4356 30 8.00087 30 6.49829C30 4.00823 27.9789 1.99997 25.5 1.99997C23.0211 1.99997 21 4.00823 21 6.49829C21 8.00085 22.3015 10.4356 24.9225 13.7275C25.1627 14.0292 25.6159 14.0896 25.9349 13.8623C25.9888 13.8239 26.0368 13.7785 26.0775 13.7275Z" fill="#E5E5E5" stroke="#4D4D4D"/>
  <path d="M25.5 7.99997C26.3284 7.99997 27 7.3284 27 6.49997C27 5.67154 26.3284 4.99997 25.5 4.99997C24.6716 4.99997 24 5.67154 24 6.49997C24 7.3284 24.6716 7.99997 25.5 7.99997Z" fill="#0091FF" stroke="#666666" stroke-width="0.5"/>
</svg>
