<svg width="32" height="32" viewBox="0 0 32 32" fill="none" xmlns="http://www.w3.org/2000/svg">
  <rect x="2.5" y="11.4215" width="20" height="15" rx="1.5" fill="#E6E6E6" stroke="#4D4D4D"/>
  <mask id="path-2-inside-1_301_6317" fill="white">
    <path
      d="M25.9985 3.00006C27.1031 3.00006 27.9985 3.89549 27.9985 5.00006V16.0001C27.9985 17.1046 27.1031 18.0001 25.9985 18.0001H9.00005C7.89548 18.0001 7.00005 17.1046 7.00005 16.0001V5.00006C7.00005 3.89549 7.89548 3.00006 9.00005 3.00006L25.9985 3.00006Z"/>
  </mask>
  <path
    d="M25.9985 3.00006C27.1031 3.00006 27.9985 3.89549 27.9985 5.00006V16.0001C27.9985 17.1046 27.1031 18.0001 25.9985 18.0001H9.00005C7.89548 18.0001 7.00005 17.1046 7.00005 16.0001V5.00006C7.00005 3.89549 7.89548 3.00006 9.00005 3.00006L25.9985 3.00006Z"
    fill="white"/>
  <path
    d="M27.044 5.00006V16.0001H28.9531V5.00006H27.044ZM25.9985 17.0455H9.00005L9.00005 18.9546H25.9985V17.0455ZM7.95463 16.0001V5.00006H6.04547V16.0001H7.95463ZM9.00005 3.95464L25.9985 3.95464V2.04548L9.00005 2.04548V3.95464ZM7.95463 5.00006C7.95463 4.42269 8.42268 3.95464 9.00005 3.95464V2.04548C7.36828 2.04548 6.04547 3.36829 6.04547 5.00006H7.95463ZM9.00005 17.0455C8.42268 17.0455 7.95463 16.5774 7.95463 16.0001H6.04547C6.04547 17.6318 7.36828 18.9546 9.00005 18.9546L9.00005 17.0455ZM27.044 16.0001C27.044 16.5774 26.5759 17.0455 25.9985 17.0455V18.9546C27.6303 18.9546 28.9531 17.6318 28.9531 16.0001H27.044ZM28.9531 5.00006C28.9531 3.36829 27.6303 2.04548 25.9985 2.04548V3.95464C26.5759 3.95464 27.044 4.42269 27.044 5.00006H28.9531Z"
    fill="#4D4D4D" mask="url(#path-2-inside-1_301_6317)"/>
  <rect x="9.99902" y="11.0001" width="8" height="1" rx="0.5" fill="#4D4D4D"/>
  <rect x="9.99902" y="13.0001" width="11" height="1" rx="0.5" fill="#4D4D4D"/>
  <rect x="9.99902" y="13.0001" width="11" height="1" rx="0.5" fill="#4D4D4D"/>
  <path
    d="M10.6863 6.91786L11.2559 3.50006H14.4088L13.8118 7.08226C13.7716 7.32335 13.563 7.50006 13.3186 7.50006H11.1795C10.8705 7.50006 10.6355 7.22263 10.6863 6.91786Z"
    fill="#FFDD00" stroke="#4D4D4D"/>
  <rect x="21.999" y="5.00009" width="4" height="4" rx="1" fill="#E5E5E5"/>
  <mask id="mask0_301_6317" style="mask-type:alpha" maskUnits="userSpaceOnUse" x="21" y="5" width="5" height="4">
    <rect x="21.999" y="5.00009" width="4" height="4" rx="1" fill="#DDDDDD"/>
  </mask>
  <g mask="url(#mask0_301_6317)">
    <circle cx="23.999" cy="6.75009" r="0.75" fill="#828282"/>
    <circle cx="23.999" cy="9.50009" r="1.5" fill="#828282"/>
  </g>
  <path
    d="M2.5 13.4215H24C24.8284 13.4215 25.5 14.0931 25.5 14.9215V26.9215C25.5 27.7499 24.8284 28.4215 24 28.4215H4C3.17157 28.4215 2.5 27.7499 2.5 26.9215V13.4215Z"
    fill="#E6E6E6" stroke="#4D4D4D"/>
  <path
    d="M17.5 20.9215C17.5 19.5408 18.6193 18.4215 20 18.4215H25.5V23.4215H20C18.6193 23.4215 17.5 22.3022 17.5 20.9215Z"
    fill="#E6E6E6" stroke="#4D4D4D"/>
  <circle cx="20" cy="20.9215" r="0.5" fill="#C4C4C4" stroke="#4D4D4D"/>
</svg>
