<svg width="33" height="32" viewBox="0 0 33 32" fill="none" xmlns="http://www.w3.org/2000/svg">
  <mask id="path-1-inside-1_301_6707" fill="white">
    <path fill-rule="evenodd" clip-rule="evenodd" d="M27.333 18.048C26.4788 18.0476 25.7865 17.3762 25.7865 16.548C25.7865 15.7198 26.4788 15.0484 27.333 15.048V10.5001C27.333 9.6716 26.6614 9 25.833 9L7.83458 9C7.00612 9 6.33452 9.6716 6.33452 10.5001V15.0008C7.1626 15.0012 7.83377 15.6726 7.83377 16.5008C7.83377 17.3289 7.1626 18.0003 6.33452 18.0008V22.4999C6.33452 23.3284 7.00612 24 7.83458 24H25.833C26.6614 24 27.333 23.3284 27.333 22.4999V18.048Z"/>
  </mask>
  <path fill-rule="evenodd" clip-rule="evenodd" d="M27.333 18.048C26.4788 18.0476 25.7865 17.3762 25.7865 16.548C25.7865 15.7198 26.4788 15.0484 27.333 15.048V10.5001C27.333 9.6716 26.6614 9 25.833 9L7.83458 9C7.00612 9 6.33452 9.6716 6.33452 10.5001V15.0008C7.1626 15.0012 7.83377 15.6726 7.83377 16.5008C7.83377 17.3289 7.1626 18.0003 6.33452 18.0008V22.4999C6.33452 23.3284 7.00612 24 7.83458 24H25.833C26.6614 24 27.333 23.3284 27.333 22.4999V18.048Z" fill="white"/>
  <path d="M27.333 18.048H28.2876V17.0939L27.3335 17.0934L27.333 18.048ZM27.333 15.048L27.3335 16.0026L28.2876 16.0022V15.048H27.333ZM6.33452 15.0008L5.37994 15.0008V15.9549L6.33405 15.9553L6.33452 15.0008ZM6.33452 18.0008L6.33405 17.0462L5.37994 17.0467V18.0008H6.33452ZM24.8319 16.548C24.8319 17.9309 25.9795 19.002 27.3326 19.0026L27.3335 17.0934C26.9782 17.0933 26.7411 16.8215 26.7411 16.548H24.8319ZM27.3326 14.0934C25.9795 14.0941 24.8319 15.1651 24.8319 16.548H26.7411C26.7411 16.2746 26.9782 16.0028 27.3335 16.0026L27.3326 14.0934ZM28.2876 15.048V10.5001H26.3784V15.048H28.2876ZM28.2876 10.5001C28.2876 9.1444 27.1886 8.04542 25.833 8.04542V9.95458C26.1342 9.95458 26.3784 10.1988 26.3784 10.5001H28.2876ZM25.833 8.04542L7.83458 8.04542V9.95458L25.833 9.95458V8.04542ZM7.83458 8.04542C6.47892 8.04542 5.37994 9.1444 5.37994 10.5001H7.2891C7.2891 10.1988 7.53332 9.95458 7.83458 9.95458V8.04542ZM5.37994 10.5001V15.0008L7.2891 15.0008V10.5001H5.37994ZM6.33405 15.9553C6.63514 15.9555 6.87919 16.1996 6.87919 16.5008H8.78835C8.78835 15.1455 7.69007 14.0468 6.335 14.0462L6.33405 15.9553ZM6.87919 16.5008C6.87919 16.8019 6.63514 17.046 6.33405 17.0462L6.335 18.9553C7.69007 18.9547 8.78835 17.856 8.78835 16.5008H6.87919ZM5.37994 18.0008V22.4999H7.2891V18.0008H5.37994ZM5.37994 22.4999C5.37994 23.8556 6.47892 24.9546 7.83458 24.9546V23.0454C7.53332 23.0454 7.2891 22.8012 7.2891 22.4999H5.37994ZM7.83458 24.9546H25.833V23.0454H7.83458V24.9546ZM25.833 24.9546C27.1886 24.9546 28.2876 23.8556 28.2876 22.4999H26.3784C26.3784 22.8012 26.1342 23.0454 25.833 23.0454V24.9546ZM28.2876 22.4999V18.048H26.3784V22.4999H28.2876Z" fill="#4D4D4D" mask="url(#path-1-inside-1_301_6707)"/>
  <rect x="10.3335" y="18" width="8" height="1" rx="0.5" fill="#4D4D4D"/>
  <rect x="10.3335" y="20" width="11" height="1" rx="0.5" fill="#4D4D4D"/>
  <path d="M10.8335 9.5H14.5478V12.7143C14.5478 12.9904 14.3239 13.2143 14.0478 13.2143H11.3335C11.0574 13.2143 10.8335 12.9904 10.8335 12.7143V9.5Z" fill="#FFDD00" stroke="#4D4D4D"/>
</svg>
