<svg width="33" height="32" viewBox="0 0 33 32" fill="none" xmlns="http://www.w3.org/2000/svg">
  <path d="M22.6665 26.5H9.6665C8.83808 26.5 8.1665 25.8284 8.1665 25V8C8.1665 7.17157 8.83808 6.5 9.6665 6.5H18.8381C19.2359 6.5 19.6174 6.65804 19.8987 6.93934L21.813 8.85355L23.7272 10.7678C24.0085 11.0491 24.1665 11.4306 24.1665 11.8284V25C24.1665 25.8284 23.4949 26.5 22.6665 26.5Z" fill="white" stroke="#4D4D4D"/>
  <path d="M19.5933 6.63388L21.813 8.85355L24.0326 11.0732C24.1901 11.2307 24.0786 11.5 23.8558 11.5H19.6665C19.3904 11.5 19.1665 11.2761 19.1665 11V6.81066C19.1665 6.58793 19.4358 6.47639 19.5933 6.63388Z" fill="#E5E5E5" stroke="#4D4D4D" stroke-linejoin="round"/>
  <rect x="10.6665" y="14" width="11" height="1" rx="0.25" fill="#4D4D4D"/>
  <rect x="10.6665" y="23" width="11" height="1" rx="0.25" fill="#4D4D4D"/>
  <path d="M11.0181 17.1387H12.0347C12.7612 17.1387 13.2622 17.2383 13.5874 17.4463C13.9126 17.6543 14.0532 17.9678 14.0532 18.3926C14.0532 18.8994 13.8071 19.2393 13.4204 19.4502C13.0308 19.6641 12.4976 19.749 11.9146 19.7578V21H11.0181V17.1387ZM11.9146 18.917H12.105C12.4507 18.917 12.7144 18.8789 12.8931 18.8057C13.0718 18.7324 13.1626 18.6182 13.1626 18.4629C13.1626 18.123 12.7817 17.9824 12.105 17.9824H11.9146V18.917ZM14.5806 17.1387H15.9897C16.6196 17.1387 17.1323 17.3555 17.4897 17.7041C17.8472 18.0527 18.0435 18.5361 18.0435 19.0635C18.0435 19.5439 17.8823 20.0273 17.5483 20.3906C17.2144 20.7539 16.7104 21 16.022 21H14.5806V17.1387ZM15.4771 20.1592H15.8521C16.3208 20.1592 16.646 20.001 16.8569 19.7871C17.0649 19.5762 17.1558 19.3008 17.1558 19.0664C17.1558 18.7969 17.0298 18.5244 16.7983 18.3223C16.5669 18.1201 16.23 17.9824 15.8081 17.9824H15.4771V20.1592ZM21.2778 17.1387V17.9824H19.5229V18.668H21.2778V19.4707H19.5229V21H18.6294V17.1387H21.2778Z" fill="#4D4D4D"/>
</svg>
