<svg width="33" height="32" viewBox="0 0 33 32" fill="none" xmlns="http://www.w3.org/2000/svg">
  <path fill-rule="evenodd" clip-rule="evenodd" d="M15.6389 16.6261C17.9057 16.6261 19.7433 14.7885 19.7433 12.5218C19.7433 10.255 17.9057 8.41741 15.6389 8.41741C13.3722 8.41741 11.5346 10.255 11.5346 12.5218C11.5346 14.7885 13.3722 16.6261 15.6389 16.6261ZM15.6389 18.087C18.7125 18.087 21.2042 15.5953 21.2042 12.5218C21.2042 9.44818 18.7125 6.95654 15.6389 6.95654C12.5654 6.95654 10.0737 9.44818 10.0737 12.5218C10.0737 15.5953 12.5654 18.087 15.6389 18.087Z" fill="#4D4D4D"/>
  <path fill-rule="evenodd" clip-rule="evenodd" d="M15.6386 29.1478C22.5158 29.1478 28.0908 23.5728 28.0908 16.6957C28.0908 9.81852 22.5158 4.24349 15.6386 4.24349C8.76148 4.24349 3.18646 9.81852 3.18646 16.6957C3.18646 23.5728 8.76148 29.1478 15.6386 29.1478ZM15.6386 30.6087C23.3226 30.6087 29.5517 24.3796 29.5517 16.6957C29.5517 9.0117 23.3226 2.78262 15.6386 2.78262C7.95467 2.78262 1.72559 9.0117 1.72559 16.6957C1.72559 24.3796 7.95467 30.6087 15.6386 30.6087Z" fill="#4D4D4D"/>
  <path fill-rule="evenodd" clip-rule="evenodd" d="M8.45328 20.9043C6.54898 20.9043 5.13971 22.6758 5.56791 24.5313L4.14445 24.8598C3.505 22.0889 5.60951 19.4434 8.45328 19.4434H11.3756C11.5634 19.4434 11.7478 19.4933 11.91 19.5879C14.2142 20.932 17.0634 20.932 19.3676 19.5879C19.5298 19.4933 19.7142 19.4434 19.902 19.4434H22.8243C25.4822 19.4434 27.4942 21.7543 27.2239 24.3187L26.6821 24.7558C26.3663 24.6829 26.0974 24.6208 25.7097 24.5314C26.1379 22.6758 24.7286 20.9043 22.8243 20.9043H20.0088C17.2985 22.441 13.9791 22.441 11.2687 20.9043H8.45328Z" fill="#4D4D4D"/>
  <path d="M3.53182 26.877L2.11437 26.1642C2.03196 26.1236 1.95839 26.0672 1.8979 25.998C1.8374 25.9289 1.79118 25.8485 1.7619 25.7615C1.73262 25.6744 1.72086 25.5823 1.7273 25.4907C1.73373 25.3991 1.75822 25.3096 1.79938 25.2275C1.86644 25.0924 1.97755 24.9842 2.11437 24.9208L3.52353 24.2079C3.58855 24.1763 3.64109 24.1237 3.67274 24.0587L4.38561 22.6496C4.42617 22.5672 4.48264 22.4935 4.55177 22.433C4.62089 22.3725 4.70131 22.3264 4.78838 22.2971C4.87545 22.2679 4.96744 22.2561 5.05908 22.2625C5.15071 22.269 5.24015 22.2934 5.32227 22.3346C5.45735 22.4017 5.56554 22.5128 5.62898 22.6496L6.34185 24.0587C6.3735 24.1237 6.42603 24.1763 6.49105 24.2079L7.90021 24.9208C7.98262 24.9614 8.0562 25.0178 8.11669 25.087C8.17719 25.1561 8.2234 25.2365 8.25268 25.3235C8.28196 25.4106 8.29371 25.5027 8.28728 25.5943C8.28085 25.6859 8.25636 25.7754 8.2152 25.8575C8.14813 25.9926 8.03702 26.1007 7.90021 26.1642L6.49105 26.877C6.42603 26.9087 6.3735 26.9613 6.34185 27.0263L5.62898 28.4354C5.58842 28.5178 5.53194 28.5914 5.46281 28.6519C5.39368 28.7124 5.31328 28.7586 5.22621 28.7878C5.13914 28.8171 5.04715 28.8289 4.95551 28.8224C4.86388 28.816 4.77442 28.7915 4.6923 28.7504C4.55723 28.6833 4.44905 28.5722 4.38561 28.4354L3.67274 27.0263C3.64322 26.9626 3.59376 26.9101 3.53182 26.877Z" fill="#FFDD00"/>
  <path fill-rule="evenodd" clip-rule="evenodd" d="M5.02186 22.7946C5.0004 22.7931 4.97887 22.7958 4.95851 22.8027C4.9378 22.8096 4.91905 22.8205 4.90313 22.8344C4.88707 22.8485 4.87381 22.8657 4.86424 22.8851L4.86167 22.8904L4.15018 24.2967C4.06691 24.4652 3.93041 24.6019 3.76161 24.6853L2.33899 25.4049C2.3122 25.4174 2.29032 25.4383 2.2772 25.4647L2.27632 25.4665C2.26669 25.4857 2.26096 25.5066 2.25945 25.528C2.25794 25.5495 2.26071 25.5711 2.26755 25.5915C2.27437 25.6118 2.28517 25.6306 2.29938 25.6468C2.3135 25.663 2.33071 25.6762 2.35004 25.6857L2.35413 25.6877L3.77158 26.4006L3.53195 26.877L3.7834 26.4067C3.9443 26.4927 4.07327 26.6278 4.15193 26.7918L4.86987 28.2109C4.88229 28.2377 4.90319 28.2596 4.92961 28.2727L4.93139 28.2736C4.95045 28.2831 4.97138 28.2889 4.99299 28.2904C5.01445 28.2919 5.03598 28.2892 5.05634 28.2823C5.07702 28.2754 5.09577 28.2645 5.11171 28.2506C5.1278 28.2365 5.14106 28.2193 5.15061 28.1999L5.15318 28.1946L5.86466 26.7884C5.94791 26.6198 6.08438 26.4831 6.25322 26.3997L7.67585 25.6801C7.70264 25.6676 7.72452 25.6467 7.73764 25.6203L7.73852 25.6185C7.74816 25.5993 7.75388 25.5784 7.75539 25.557C7.7569 25.5355 7.75413 25.5139 7.74729 25.4935C7.74045 25.4732 7.72965 25.4544 7.71547 25.4382C7.70137 25.4221 7.68416 25.4088 7.6648 25.3993L7.65958 25.3967L6.25322 24.6853C6.08438 24.6019 5.94791 24.4652 5.86466 24.2967L5.14498 22.8741C5.13257 22.8473 5.11167 22.8254 5.08523 22.8123L5.08345 22.8114C5.06437 22.8018 5.04346 22.7961 5.02186 22.7946ZM3.2231 27.3187L1.87664 26.6415C1.73208 26.57 1.60296 26.4707 1.49667 26.3493C1.3899 26.2273 1.30825 26.0853 1.25652 25.9315C1.2048 25.7777 1.18405 25.6151 1.1954 25.4533C1.20674 25.2919 1.24985 25.1342 1.32226 24.9894C1.44177 24.7492 1.63848 24.5563 1.88069 24.4414L3.22581 23.7609L3.90871 22.4111C3.98017 22.2669 4.07931 22.1379 4.20067 22.0317C4.323 21.9246 4.46508 21.8432 4.61851 21.7916C4.77228 21.7399 4.93475 21.7192 5.09656 21.7305C5.25789 21.7419 5.41555 21.7849 5.56047 21.8573C5.80065 21.9768 5.99363 22.1735 6.10852 22.4158L6.78904 23.7609L8.13889 24.4438C8.28314 24.5153 8.41204 24.6144 8.51818 24.7357C8.62498 24.8578 8.7066 24.9997 8.75832 25.1535C8.81004 25.3073 8.83079 25.4699 8.81944 25.6317C8.8081 25.7931 8.76503 25.9506 8.69267 26.0954C8.57317 26.3357 8.37642 26.5287 8.13416 26.6436L6.78904 27.3241L6.10615 28.6739C6.03467 28.8181 5.9355 28.9471 5.81417 29.0533C5.69185 29.1603 5.54979 29.2418 5.39634 29.2934C5.24257 29.3451 5.0801 29.3658 4.9183 29.3545C4.75693 29.3431 4.59921 29.3001 4.45424 29.2276C4.21411 29.1081 4.0212 28.9114 3.90633 28.6692L3.2231 27.3187Z" fill="#4D4D4D"/>
  <path d="M22.8442 9.13938L20.4651 7.94288C20.3267 7.87479 20.2032 7.78003 20.1017 7.66401C20.0002 7.54798 19.9226 7.41306 19.8735 7.26693C19.8243 7.12079 19.8046 6.96624 19.8154 6.81244C19.8262 6.65864 19.8673 6.50854 19.9364 6.3707C20.0489 6.14398 20.2354 5.96241 20.4651 5.85592L22.8303 4.65942C22.9394 4.6063 23.0276 4.51805 23.0807 4.40891L24.2772 2.04376C24.3453 1.90543 24.4401 1.78185 24.5561 1.68031C24.6722 1.57878 24.8071 1.50136 24.9533 1.45222C25.0994 1.40308 25.2538 1.38334 25.4076 1.39414C25.5614 1.40493 25.7116 1.44598 25.8494 1.51506C26.0761 1.62763 26.2577 1.81412 26.3642 2.04376L27.5607 4.40891C27.6138 4.51805 27.702 4.6063 27.8111 4.65942L30.1764 5.85592C30.3147 5.92401 30.4382 6.01877 30.5397 6.13479C30.6413 6.25082 30.7188 6.38574 30.768 6.53187C30.8171 6.67801 30.8368 6.83256 30.826 6.98636C30.8153 7.14016 30.7741 7.29026 30.7051 7.4281C30.5925 7.65482 30.406 7.83639 30.1764 7.94288L27.8111 9.13938C27.702 9.1925 27.6138 9.28075 27.5607 9.38989L26.3642 11.755C26.2961 11.8934 26.2013 12.017 26.0853 12.1185C25.9693 12.22 25.8343 12.2974 25.6882 12.3466C25.542 12.3957 25.3876 12.4155 25.2338 12.4047C25.08 12.3939 24.9299 12.3528 24.792 12.2837C24.5653 12.1712 24.3837 11.9847 24.2772 11.755L23.0807 9.38989C23.0312 9.28294 22.9481 9.19495 22.8442 9.13938Z" fill="#FFDD00"/>
  <path fill-rule="evenodd" clip-rule="evenodd" d="M25.3704 1.92617C25.2868 1.9203 25.2028 1.93103 25.1234 1.95774C25.0436 1.98457 24.9703 2.0267 24.9075 2.08167C24.8445 2.13677 24.793 2.20396 24.7559 2.27931L24.7533 2.28454L23.5583 4.64664C23.4535 4.8595 23.2812 5.03198 23.0681 5.13687L20.6897 6.34006C20.5701 6.39553 20.4728 6.48982 20.4142 6.60789L20.4133 6.60966C20.3757 6.6846 20.3534 6.76619 20.3475 6.8498C20.3417 6.93346 20.3524 7.01754 20.3791 7.09694C20.4058 7.17631 20.4479 7.24965 20.5032 7.31279C20.5584 7.37583 20.6255 7.42734 20.7007 7.46438L20.7048 7.4664L23.084 8.66292L22.8443 9.13938L23.0958 8.66905C23.2989 8.77763 23.4615 8.94844 23.5602 9.15596L24.7615 11.5306C24.817 11.6502 24.9113 11.7474 25.0293 11.8061L25.0311 11.8069C25.1059 11.8444 25.1875 11.8668 25.2713 11.8726C25.3549 11.8785 25.4389 11.8678 25.5183 11.8411C25.598 11.8143 25.6713 11.7721 25.7342 11.7171C25.7972 11.662 25.8488 11.5948 25.8858 11.5195L25.8884 11.5143L27.0834 9.1522C27.1882 8.93936 27.3604 8.76686 27.5736 8.66194L29.952 7.45876C30.0716 7.40329 30.1689 7.309 30.2275 7.19093L30.2284 7.18916C30.2659 7.11422 30.2883 7.03263 30.2942 6.94902C30.3 6.86535 30.2893 6.78128 30.2626 6.70188C30.2359 6.62247 30.1937 6.54914 30.1385 6.48603C30.0834 6.42301 30.0162 6.37149 29.941 6.33444L29.9357 6.33186L27.5736 5.13688C27.3604 5.03196 27.1882 4.85945 27.0834 4.64662L25.8802 2.26826C25.8247 2.14866 25.7304 2.05139 25.6124 1.99276L25.6106 1.99187C25.5358 1.95439 25.4542 1.93205 25.3704 1.92617ZM22.5941 9.61054L20.2274 8.42027C20.0269 8.32121 19.8478 8.18362 19.7005 8.01524C19.5527 7.84633 19.4397 7.64984 19.3681 7.43693C19.2965 7.22406 19.2678 6.99904 19.2835 6.7751C19.2992 6.55145 19.3589 6.33314 19.4592 6.13265C19.6243 5.80067 19.8966 5.53423 20.2318 5.37632L22.597 4.17982C22.5987 4.17897 22.6003 4.17751 22.6013 4.17552L22.6049 4.16813L23.8003 1.80537C23.8993 1.60522 24.0367 1.42624 24.205 1.27897C24.3743 1.13087 24.5709 1.01817 24.7834 0.946713C24.9962 0.875139 25.2211 0.846396 25.4451 0.86212C25.6686 0.877809 25.887 0.937411 26.0876 1.03782C26.4196 1.20288 26.686 1.47512 26.8439 1.81036L28.0405 4.17549C28.0415 4.17753 28.043 4.17905 28.0447 4.17988L28.0521 4.18347L30.4149 5.37882C30.6151 5.47785 30.794 5.61534 30.9412 5.78358C31.0891 5.95252 31.202 6.14902 31.2736 6.36189C31.3452 6.57476 31.3739 6.79977 31.3582 7.02371C31.3425 7.24732 31.2828 7.46557 31.1825 7.66603C31.0174 7.99807 30.7452 8.26456 30.4099 8.4225L28.0447 9.619C28.043 9.61982 28.0414 9.62126 28.0404 9.6233L28.0368 9.63068L26.8414 11.9934C26.7424 12.1936 26.6049 12.3726 26.4366 12.5199C26.2674 12.6679 26.0708 12.7806 25.8583 12.8521C25.6455 12.9237 25.4206 12.9524 25.1966 12.9367C24.9732 12.921 24.7548 12.8614 24.5542 12.7611C24.2222 12.596 23.9557 12.3237 23.7978 11.9885L22.5966 9.61422C22.596 9.61275 22.5953 9.61142 22.5941 9.61054Z" fill="#4D4D4D"/>
</svg>
