<svg width="32" height="32" viewBox="0 0 32 32" fill="none" xmlns="http://www.w3.org/2000/svg">
  <path d="M4 19C4 16.2386 6.23858 14 9 14H11C11.5523 14 12 14.4477 12 15V23C12 25.2091 10.2091 27 8 27C5.79086 27 4 25.2091 4 23V19Z" fill="#E5E5E5"/>
  <path d="M12.25 15.5L11.5 15.75L11 24.25L13.25 25L22.5 25.5L25.5 25L24.75 22.5L26.25 21.5L25.75 19.25L27.5 18L26.25 16.25L27.5 14.5L25.75 12.5H18.75L19.5 9L18.75 6.5L17 4.5L15.25 5.25V9L12.25 15.5Z" fill="white"/>
  <path d="M28 17.75C28 17.149 27.761 16.589 27.349 16.176C27.816 15.665 28.054 14.98 27.989 14.267C27.872 12.996 26.727 12 25.381 12H19.204C19.51 11.071 20 9.36798 20 7.99998C20 5.83098 18.157 4 17 4C15.962 4 15.219 4.585 15.188 4.609C15.069 4.70402 15 4.84802 15 4.99998V8.39097L12.119 14.63L12 14.691V14.5C12 14.224 11.776 13.9999 11.5 13.9999H6.49998C5.12102 14 4 15.121 4 16.5V24.5C4 25.879 5.12102 27 6.49998 27H9.49998C10.581 27 11.505 26.31 11.853 25.347C12.685 25.775 13.805 26 14.5 26H23.679C24.768 26 25.721 25.266 25.945 24.254C26.06 23.732 25.993 23.207 25.765 22.751C26.503 22.38 27 21.617 27 20.75C27 20.396 26.919 20.057 26.766 19.751C27.504 19.379 28 18.617 28 17.75ZM25.891 18.984C25.698 19.007 25.535 19.138 25.473 19.323C25.412 19.508 25.463 19.711 25.605 19.845C25.859 20.084 26 20.406 26 20.75C26 21.381 25.523 21.911 24.892 21.984C24.6991 22.007 24.536 22.138 24.4741 22.323C24.4131 22.508 24.4641 22.711 24.6061 22.845C24.9351 23.155 25.0671 23.59 24.9681 24.038C24.8451 24.596 24.3031 25 23.6791 25H14.5C13.688 25 12.326 24.619 11.854 24.146C11.711 24.004 11.495 23.962 11.309 24.038C11.122 24.115 11 24.298 11 24.5C11 25.327 10.327 26 9.49998 26H6.49998C5.67297 26 4.99998 25.327 4.99998 24.5V16.5C4.99998 15.673 5.67297 15 6.49998 15H11V15.5C11 15.673 11.09 15.834 11.238 15.926C11.384 16.014 11.568 16.023 11.724 15.947L12.724 15.447C12.825 15.397 12.906 15.313 12.954 15.21L15.954 8.70995C15.984 8.64395 16 8.57195 16 8.49995V5.27097C16.208 5.15598 16.569 4.99998 17 4.99998C17.548 4.99998 19 6.36198 19 7.99998C19 9.76 18.042 12.297 18.033 12.322C17.975 12.475 17.995 12.648 18.088 12.784C18.182 12.919 18.336 13 18.5 13H25.381C26.215 13 26.923 13.597 26.993 14.359C27.046 14.929 26.772 15.471 26.281 15.774C26.128 15.868 26.037 16.038 26.044 16.219C26.051 16.4 26.155 16.562 26.315 16.645C26.738 16.86 27 17.284 27 17.75C27 18.381 26.523 18.911 25.891 18.984Z" fill="#4D4D4D"/>
  <path d="M11.5 15C11.224 15 11 15.224 11 15.5V24.5C11 24.776 11.224 25 11.5 25C11.776 25 12 24.776 12 24.5V15.5C12 15.224 11.776 15 11.5 15Z" fill="#4D4D4D"/>
</svg>
