<svg width="32" height="32" viewBox="0 0 32 32" fill="none" xmlns="http://www.w3.org/2000/svg">
  <path d="M28 13C28 15.7614 25.7614 18 23 18L21 18C20.4477 18 20 17.5523 20 17L20 9C20 6.79086 21.7909 5 24 5C26.2091 5 28 6.79086 28 9L28 13Z" fill="#E5E5E5"/>
  <path d="M19.75 16.5L20.5 16.25L21 7.75L18.75 7L9.5 6.5L6.5 7L7.25 9.5L5.75 10.5L6.25 12.75L4.5 14L5.75 15.75L4.5 17.5L6.25 19.5L13.25 19.5L12.5 23L13.25 25.5L15 27.5L16.75 26.75L16.75 23L19.75 16.5Z" fill="white"/>
  <path d="M4 14.25C4 14.851 4.23902 15.411 4.651 15.824C4.18399 16.335 3.946 17.02 4.01102 17.733C4.12802 19.004 5.27303 20 6.619 20L12.796 20C12.49 20.929 12 22.632 12 24C12 26.169 13.843 28 15 28C16.038 28 16.781 27.415 16.812 27.391C16.931 27.296 17 27.152 17 27L17 23.609L19.881 17.37L20 17.309L20 17.5C20 17.776 20.224 18.0001 20.5 18.0001L25.5 18.0001C26.879 18 28 16.879 28 15.5L28 7.50002C28 6.121 26.879 5.00003 25.5 5.00003L22.5 5.00003C21.419 5.00003 20.495 5.69003 20.147 6.65303C19.315 6.22501 18.195 6.00001 17.5 6.00001L8.32099 6.00001C7.23199 6.00001 6.27897 6.73403 6.055 7.74601C5.94002 8.26801 6.007 8.79301 6.235 9.24901C5.497 9.62003 4.99999 10.383 4.99999 11.25C4.99999 11.604 5.08099 11.943 5.23399 12.249C4.49599 12.621 4 13.383 4 14.25ZM6.109 13.016C6.30199 12.993 6.46502 12.862 6.52699 12.677C6.58797 12.492 6.53697 12.289 6.39498 12.155C6.14097 11.916 5.99997 11.594 5.99997 11.25C5.99997 10.619 6.47697 10.089 7.10796 10.016C7.30094 9.99301 7.46397 9.86204 7.52594 9.67703C7.58692 9.49201 7.53592 9.28905 7.39394 9.15503C7.06492 8.84505 6.93292 8.41004 7.03192 7.96201C7.15492 7.40401 7.69694 7 8.32094 7L17.5 7C18.312 7 19.674 7.381 20.146 7.85401C20.289 7.996 20.505 8.038 20.691 7.96201C20.878 7.885 21 7.702 21 7.50001C21 6.673 21.673 6.00001 22.5 6.00001L25.5 6.00002C26.327 6.00002 27 6.673 27 7.50002L27 15.5C27 16.327 26.327 17 25.5 17L21 17L21 16.5C21 16.327 20.91 16.166 20.762 16.074C20.616 15.986 20.432 15.977 20.276 16.053L19.276 16.553C19.175 16.603 19.094 16.687 19.046 16.79L16.046 23.29C16.016 23.356 16 23.428 16 23.5L16 26.729C15.792 26.844 15.431 27 15 27C14.452 27 13 25.638 13 24C13 22.24 13.958 19.703 13.967 19.678C14.025 19.525 14.005 19.352 13.912 19.216C13.818 19.081 13.664 19 13.5 19L6.619 19C5.785 19 5.077 18.403 5.00702 17.641C4.954 17.071 5.22803 16.529 5.719 16.226C5.872 16.132 5.96299 15.962 5.956 15.781C5.94902 15.6 5.845 15.438 5.68502 15.355C5.26202 15.14 5.00003 14.716 5.00003 14.25C4.99999 13.619 5.47699 13.089 6.109 13.016Z" fill="#4D4D4D"/>
  <path d="M20.5 17C20.776 17 21 16.776 21 16.5L21 7.49998C21 7.22398 20.776 6.99996 20.5 6.99996C20.224 6.99996 20 7.22398 20 7.49998L20 16.5C20 16.776 20.224 17 20.5 17Z" fill="#4D4D4D"/>
</svg>
