<svg width="40" height="40" viewBox="0 0 40 40" fill="none" xmlns="http://www.w3.org/2000/svg">
  <path d="M39 19.9999C39 30.4933 30.4934 38.9999 20 38.9999C9.50659 38.9999 1 30.4933 1 19.9999C1 9.50653 9.50659 0.999939 20 0.999939C30.4934 0.999939 39 9.50653 39 19.9999Z" stroke="#4D4D4D" stroke-width="2"/>
  <mask id="path-2-inside-1_2131_74108" fill="white">
    <path fill-rule="evenodd" clip-rule="evenodd" d="M19.9291 15.0007C19.9525 15.0002 19.976 14.9999 19.9996 14.9999C21.5775 14.9999 22.8567 16.2791 22.8567 17.857V17.9733C22.8568 17.9821 22.8568 17.991 22.8568 17.9999V18.111C22.8568 18.1199 22.8568 18.1287 22.8567 18.1376V27.2221H23.6663C25.3232 27.2221 26.6663 28.5652 26.6663 30.2221V30.3332C26.6663 31.99 25.3232 33.3332 23.6663 33.3332H20.0137L19.9996 33.3332L19.9854 33.3332H16.333C14.6762 33.3332 13.333 31.99 13.333 30.3332V30.2221C13.333 28.5652 14.6762 27.2221 16.333 27.2221H17.1424V21.111H16.333C14.6762 21.111 13.333 19.7678 13.333 18.111V17.9999C13.333 16.343 14.6762 14.9999 16.333 14.9999H19.8568C19.881 14.9999 19.905 15.0002 19.9291 15.0007Z"/>
  </mask>
  <path fill-rule="evenodd" clip-rule="evenodd" d="M19.9291 15.0007C19.9525 15.0002 19.976 14.9999 19.9996 14.9999C21.5775 14.9999 22.8567 16.2791 22.8567 17.857V17.9733C22.8568 17.9821 22.8568 17.991 22.8568 17.9999V18.111C22.8568 18.1199 22.8568 18.1287 22.8567 18.1376V27.2221H23.6663C25.3232 27.2221 26.6663 28.5652 26.6663 30.2221V30.3332C26.6663 31.99 25.3232 33.3332 23.6663 33.3332H20.0137L19.9996 33.3332L19.9854 33.3332H16.333C14.6762 33.3332 13.333 31.99 13.333 30.3332V30.2221C13.333 28.5652 14.6762 27.2221 16.333 27.2221H17.1424V21.111H16.333C14.6762 21.111 13.333 19.7678 13.333 18.111V17.9999C13.333 16.343 14.6762 14.9999 16.333 14.9999H19.8568C19.881 14.9999 19.905 15.0002 19.9291 15.0007Z" fill="#FFDD00"/>
  <path d="M19.9291 15.0007L19.8897 16.6669L19.9295 16.6679L19.9694 16.6669L19.9291 15.0007ZM22.8567 17.9733H21.19V17.9806L21.1901 17.9878L22.8567 17.9733ZM22.8567 18.1376L21.1901 18.123L21.19 18.1303V18.1376H22.8567ZM22.8567 27.2221H21.19V28.8887H22.8567V27.2221ZM20.0137 33.3332V31.6665L20.0097 31.6665L20.0137 33.3332ZM19.9996 33.3332L19.9955 34.9999L20.0036 34.9999L19.9996 33.3332ZM19.9854 33.3332L19.9894 31.6665H19.9854V33.3332ZM17.1424 27.2221V28.8887H18.8091V27.2221H17.1424ZM17.1424 21.111H18.8091V19.4443H17.1424V21.111ZM19.9996 13.3332C19.9625 13.3332 19.9256 13.3337 19.8887 13.3346L19.9694 16.6669C19.9794 16.6667 19.9894 16.6665 19.9996 16.6665V13.3332ZM24.5234 17.857C24.5234 15.3586 22.498 13.3332 19.9996 13.3332V16.6665C20.657 16.6665 21.19 17.1995 21.19 17.857H24.5234ZM24.5234 17.9733V17.857H21.19V17.9733H24.5234ZM21.1901 17.9878C21.1901 17.9918 21.1902 17.9958 21.1902 17.9999H24.5235C24.5235 17.9862 24.5234 17.9725 24.5233 17.9587L21.1901 17.9878ZM21.1902 17.9999V18.111H24.5235V17.9999H21.1902ZM21.1902 18.111C21.1902 18.1151 21.1901 18.1191 21.1901 18.123L24.5233 18.1521C24.5234 18.1384 24.5235 18.1246 24.5235 18.111H21.1902ZM24.5234 27.2221V18.1376H21.19V27.2221H24.5234ZM23.6663 25.5554H22.8567V28.8887H23.6663V25.5554ZM28.333 30.2221C28.333 27.6447 26.2437 25.5554 23.6663 25.5554V28.8887C24.4027 28.8887 24.9997 29.4857 24.9997 30.2221H28.333ZM28.333 30.3332V30.2221H24.9997V30.3332H28.333ZM23.6663 34.9998C26.2437 34.9998 28.333 32.9105 28.333 30.3332H24.9997C24.9997 31.0696 24.4027 31.6665 23.6663 31.6665V34.9998ZM20.0137 34.9998H23.6663V31.6665H20.0137V34.9998ZM20.0036 34.9999L20.0178 34.9998L20.0097 31.6665L19.9955 31.6665L20.0036 34.9999ZM19.9814 34.9998L19.9955 34.9999L20.0036 31.6665L19.9894 31.6665L19.9814 34.9998ZM16.333 34.9998H19.9854V31.6665H16.333V34.9998ZM11.6663 30.3332C11.6663 32.9105 13.7557 34.9998 16.333 34.9998V31.6665C15.5966 31.6665 14.9997 31.0696 14.9997 30.3332H11.6663ZM11.6663 30.2221V30.3332H14.9997V30.2221H11.6663ZM16.333 25.5554C13.7557 25.5554 11.6663 27.6447 11.6663 30.2221H14.9997C14.9997 29.4857 15.5966 28.8887 16.333 28.8887V25.5554ZM17.1424 25.5554H16.333V28.8887H17.1424V25.5554ZM15.4757 21.111V27.2221H18.8091V21.111H15.4757ZM17.1424 19.4443H16.333V22.7777H17.1424V19.4443ZM16.333 19.4443C15.5966 19.4443 14.9997 18.8474 14.9997 18.111H11.6663C11.6663 20.6883 13.7557 22.7777 16.333 22.7777V19.4443ZM14.9997 18.111V17.9999H11.6663V18.111H14.9997ZM14.9997 17.9999C14.9997 17.2635 15.5966 16.6665 16.333 16.6665V13.3332C13.7557 13.3332 11.6663 15.4225 11.6663 17.9999H14.9997ZM16.333 16.6665H19.8568V13.3332H16.333V16.6665ZM19.8568 16.6665C19.8678 16.6665 19.8788 16.6667 19.8897 16.6669L19.9684 13.3345C19.9313 13.3337 19.8941 13.3332 19.8568 13.3332V16.6665Z" fill="#4D4D4D" mask="url(#path-2-inside-1_2131_74108)"/>
  <path d="M15.8331 10.2082C15.8331 8.71246 17.0457 7.4999 18.5414 7.4999C20.0372 7.4999 21.2498 8.71246 21.2498 10.2082C21.2498 11.704 20.0372 12.9166 18.5414 12.9166C17.0457 12.9166 15.8331 11.704 15.8331 10.2082Z" fill="#FFDD00" stroke="#4D4D4D" stroke-width="1.66667"/>
</svg>
