<svg width="42" height="38" viewBox="0 0 42 38" fill="none" xmlns="http://www.w3.org/2000/svg">
  <path d="M1 36V2C1 1.44772 1.44772 1 2 1H20C20.5523 1 21 1.44772 21 2V8C21 8.55228 21.4477 9 22 9H40C40.5523 9 41 9.44771 41 10V36C41 36.5523 40.5523 37 40 37H2C1.44772 37 1 36.5523 1 36Z" fill="#E5E5E5" stroke="#4D4D4D" stroke-width="1.36"/>
  <rect x="4.68" y="4.68" width="4.64" height="4.64" fill="#FFDD00" stroke="#4D4D4D" stroke-width="1.36"/>
  <rect x="12.68" y="4.68" width="4.64" height="4.64" fill="#FFDD00" stroke="#4D4D4D" stroke-width="1.36"/>
  <rect x="4.68" y="12.68" width="4.64" height="4.64" fill="#FFDD00" stroke="#4D4D4D" stroke-width="1.36"/>
  <rect x="12.68" y="12.68" width="4.64" height="4.64" fill="#FFDD00" stroke="#4D4D4D" stroke-width="1.36"/>
  <rect x="5.68" y="21.68" width="2.64" height="2.64" fill="#FFDD00" stroke="#4D4D4D" stroke-width="1.36"/>
  <rect x="13.68" y="21.68" width="2.64" height="2.64" fill="#FFDD00" stroke="#4D4D4D" stroke-width="1.36"/>
  <rect x="5.68" y="29.68" width="2.64" height="2.64" fill="#FFDD00" stroke="#4D4D4D" stroke-width="1.36"/>
  <rect x="13.68" y="29.68" width="2.64" height="2.64" fill="#FFDD00" stroke="#4D4D4D" stroke-width="1.36"/>
  <rect x="21.68" y="17.68" width="2.64" height="2.64" fill="#FFDD00" stroke="#4D4D4D" stroke-width="1.36"/>
  <rect x="29.68" y="17.68" width="2.64" height="2.64" fill="#FFDD00" stroke="#4D4D4D" stroke-width="1.36"/>
  <rect x="21.68" y="25.68" width="2.64" height="2.64" fill="#FFDD00" stroke="#4D4D4D" stroke-width="1.36"/>
  <rect x="29.68" y="25.68" width="2.64" height="2.64" fill="#FFDD00" stroke="#4D4D4D" stroke-width="1.36"/>
  <rect x="4.68" y="20.68" width="4.64" height="4.64" fill="#FFDD00" stroke="#4D4D4D" stroke-width="1.36"/>
  <rect x="12.68" y="20.68" width="4.64" height="4.64" fill="#FFDD00" stroke="#4D4D4D" stroke-width="1.36"/>
  <rect x="4.68" y="28.68" width="4.64" height="4.64" fill="#FFDD00" stroke="#4D4D4D" stroke-width="1.36"/>
  <rect x="12.68" y="28.68" width="4.64" height="4.64" fill="#FFDD00" stroke="#4D4D4D" stroke-width="1.36"/>
  <rect x="21.68" y="24.68" width="4.64" height="4.64" fill="#FFDD00" stroke="#4D4D4D" stroke-width="1.36"/>
  <rect x="29.68" y="24.68" width="4.64" height="4.64" fill="#FFDD00" stroke="#4D4D4D" stroke-width="1.36"/>
  <rect x="21.68" y="16.68" width="4.64" height="4.64" fill="#FFDD00" stroke="#4D4D4D" stroke-width="1.36"/>
  <rect x="29.68" y="16.68" width="4.64" height="4.64" fill="#FFDD00" stroke="#4D4D4D" stroke-width="1.36"/>
</svg>
