<svg width="35" height="40" viewBox="0 0 35 40" fill="none" xmlns="http://www.w3.org/2000/svg">
  <path d="M20.3222 37.935C19.5913 38.6806 18.5999 39.0994 17.5662 39.0994C16.5324 39.0994 15.541 38.6806 14.8101 37.935C14.0791 37.1894 13.6685 36.1782 13.6685 35.1238H21.4639C21.4639 36.1782 21.0532 37.1894 20.3222 37.935Z" fill="#FFDD00" stroke="#4D4D4D" stroke-width="1.65652" stroke-linejoin="round"/>
  <path fill-rule="evenodd" clip-rule="evenodd" d="M17.565 1C16.6502 1 15.9085 1.74165 15.9085 2.65652V4.43047C10.289 5.23418 5.96919 10.067 5.96919 15.9087V27.5044H3.48478C2.11248 27.5044 1 28.6168 1 29.9892C1 31.3615 2.11247 32.4739 3.48478 32.4739L5.96919 32.4739H29.1605L31.6457 32.4739C33.018 32.4739 34.1304 31.3615 34.1304 29.9892C34.1304 28.6168 33.018 27.5044 31.6457 27.5044H29.1605V15.9087C29.1605 10.0671 24.8409 5.2344 19.2216 4.43052V2.65652C19.2216 1.74165 18.4799 1 17.565 1Z" fill="#E5E5E5"/>
  <path d="M15.9085 4.43047L16.0258 5.25039L16.7368 5.1487V4.43047H15.9085ZM5.96919 27.5044V28.3326H6.79745V27.5044H5.96919ZM3.48478 32.4739L3.48479 31.6457H3.48478V32.4739ZM5.96919 32.4739L5.96918 33.3022H5.96919V32.4739ZM29.1605 32.4739V33.3022H29.1605L29.1605 32.4739ZM31.6457 32.4739V31.6457H31.6457L31.6457 32.4739ZM29.1605 27.5044H28.3322V28.3326H29.1605V27.5044ZM19.2216 4.43052H18.3933V5.14873L19.1043 5.25044L19.2216 4.43052ZM16.7368 2.65652C16.7368 2.19909 17.1076 1.82826 17.565 1.82826V0.171739C16.1927 0.171739 15.0802 1.28422 15.0802 2.65652H16.7368ZM16.7368 4.43047V2.65652H15.0802V4.43047H16.7368ZM15.7912 3.61055C9.76957 4.47178 5.14093 9.649 5.14093 15.9087H6.79745C6.79745 10.485 10.8084 5.99658 16.0258 5.25039L15.7912 3.61055ZM5.14093 15.9087V27.5044H6.79745V15.9087H5.14093ZM5.96919 26.6761H3.48478V28.3326H5.96919V26.6761ZM3.48478 26.6761C1.65504 26.6761 0.171739 28.1594 0.171739 29.9892H1.82826C1.82826 29.0743 2.56991 28.3326 3.48478 28.3326V26.6761ZM0.171739 29.9892C0.171739 31.8189 1.65504 33.3022 3.48478 33.3022V31.6457C2.56991 31.6457 1.82826 30.904 1.82826 29.9892H0.171739ZM3.48478 33.3022L5.96918 33.3022L5.96919 31.6457L3.48479 31.6457L3.48478 33.3022ZM5.96919 33.3022H29.1605V31.6457H5.96919V33.3022ZM29.1605 33.3022L31.6457 33.3022L31.6457 31.6457L29.1605 31.6457L29.1605 33.3022ZM31.6457 33.3022C33.4754 33.3022 34.9587 31.8189 34.9587 29.9892H33.3022C33.3022 30.904 32.5605 31.6457 31.6457 31.6457V33.3022ZM34.9587 29.9892C34.9587 28.1594 33.4754 26.6761 31.6457 26.6761V28.3326C32.5605 28.3326 33.3022 29.0743 33.3022 29.9892H34.9587ZM31.6457 26.6761H29.1605V28.3326H31.6457V26.6761ZM29.9888 27.5044V15.9087H28.3322V27.5044H29.9888ZM29.9888 15.9087C29.9888 9.64914 25.3603 4.47202 19.3388 3.61061L19.1043 5.25044C24.3214 5.99678 28.3322 10.4851 28.3322 15.9087H29.9888ZM18.3933 2.65652V4.43052H20.0498V2.65652H18.3933ZM17.565 1.82826C18.0225 1.82826 18.3933 2.19909 18.3933 2.65652H20.0498C20.0498 1.28421 18.9373 0.171739 17.565 0.171739V1.82826Z" fill="#4D4D4D"/>
</svg>
