<svg width="40" height="29" viewBox="0 0 40 29" fill="none" xmlns="http://www.w3.org/2000/svg">
  <mask id="path-1-inside-1_2131_74018" fill="white">
    <path fill-rule="evenodd" clip-rule="evenodd" d="M40 17.2355C38.3725 17.2351 37.0533 15.956 37.0533 14.3781C37.0533 12.8003 38.3725 11.5211 40 11.5208V2.85745C40 1.27933 38.7207 0 37.1425 0L2.85745 0C1.27932 0 0 1.27933 0 2.85745V11.4308C1.57739 11.4316 2.85586 12.7106 2.85586 14.2881C2.85586 15.8657 1.57739 17.1447 0 17.1455V25.716C0 27.2942 1.27932 28.5735 2.85745 28.5735L37.1425 28.5735C38.7207 28.5735 40 27.2942 40 25.716V17.2355Z"/>
  </mask>
  <path fill-rule="evenodd" clip-rule="evenodd" d="M40 17.2355C38.3725 17.2351 37.0533 15.956 37.0533 14.3781C37.0533 12.8003 38.3725 11.5211 40 11.5208V2.85745C40 1.27933 38.7207 0 37.1425 0L2.85745 0C1.27932 0 0 1.27933 0 2.85745V11.4308C1.57739 11.4316 2.85586 12.7106 2.85586 14.2881C2.85586 15.8657 1.57739 17.1447 0 17.1455V25.716C0 27.2942 1.27932 28.5735 2.85745 28.5735L37.1425 28.5735C38.7207 28.5735 40 27.2942 40 25.716V17.2355Z" fill="white"/>
  <path d="M40 17.2355H41.8184V15.4175L40.0004 15.4171L40 17.2355ZM40 11.5208L40.0004 13.3392L41.8184 13.3388V11.5208H40ZM0 11.4308H-1.81838V13.2482L-0.000926971 13.2492L0 11.4308ZM0 17.1455L-0.000926971 15.3271L-1.81838 15.328V17.1455H0ZM35.2349 14.3781C35.2349 17.0129 37.4216 19.0533 39.9996 19.0539L40.0004 15.4171C39.3234 15.417 38.8717 14.8991 38.8717 14.3781H35.2349ZM39.9996 9.7024C37.4216 9.70296 35.2349 11.7434 35.2349 14.3781H38.8717C38.8717 13.8571 39.3234 13.3393 40.0004 13.3392L39.9996 9.7024ZM41.8184 11.5208V2.85745H38.1816V11.5208H41.8184ZM41.8184 2.85745C41.8184 0.275063 39.7249 -1.81838 37.1425 -1.81838V1.81838C37.7164 1.81838 38.1816 2.28359 38.1816 2.85745H41.8184ZM37.1425 -1.81838L2.85745 -1.81838V1.81838L37.1425 1.81838V-1.81838ZM2.85745 -1.81838C0.275059 -1.81838 -1.81838 0.275065 -1.81838 2.85745L1.81838 2.85745C1.81838 2.28359 2.28359 1.81838 2.85745 1.81838V-1.81838ZM-1.81838 2.85745V11.4308H1.81838V2.85745L-1.81838 2.85745ZM-0.000926971 13.2492C0.572613 13.2495 1.03748 13.7145 1.03748 14.2881H4.67424C4.67424 11.7066 2.58216 9.61373 0.000926971 9.61241L-0.000926971 13.2492ZM1.03748 14.2881C1.03748 14.8618 0.572613 15.3268 -0.000926971 15.3271L0.000926971 18.9639C2.58216 18.9626 4.67424 16.8697 4.67424 14.2881H1.03748ZM-1.81838 17.1455V25.716H1.81838V17.1455H-1.81838ZM-1.81838 25.716C-1.81838 28.2984 0.275059 30.3919 2.85745 30.3919V26.7551C2.28359 26.7551 1.81838 26.2899 1.81838 25.716H-1.81838ZM2.85745 30.3919L37.1425 30.3919V26.7551L2.85745 26.7551V30.3919ZM37.1425 30.3919C39.7249 30.3919 41.8184 28.2984 41.8184 25.716H38.1816C38.1816 26.2899 37.7164 26.7551 37.1425 26.7551V30.3919ZM41.8184 25.716V17.2355H38.1816V25.716H41.8184Z" fill="#4D4D4D" mask="url(#path-1-inside-1_2131_74018)"/>
  <rect x="7.61768" y="17.144" width="15.2392" height="1.9049" rx="0.95245" fill="#4D4D4D"/>
  <rect x="7.61768" y="20.9539" width="20.9539" height="1.9049" rx="0.95245" fill="#4D4D4D"/>
  <path d="M8.57013 0.95245H15.6455V7.07534C15.6455 7.60137 15.219 8.02779 14.693 8.02779H9.52257C8.99655 8.02779 8.57013 7.60137 8.57013 7.07534V0.95245Z" fill="#FFDD00" stroke="#4D4D4D" stroke-width="1.9049"/>
</svg>
