<svg width="40" height="22" viewBox="0 0 40 22" fill="none" xmlns="http://www.w3.org/2000/svg">
  <circle cx="5.86341" cy="11.7268" r="5.4446" stroke="#4D4D4D" stroke-width="0.83763"/>
  <circle cx="33.924" cy="11.7268" r="5.4446" stroke="#4D4D4D" stroke-width="0.83763"/>
  <path d="M5.63335 4.00075C5.63335 3.53421 5.94025 3.13259 6.37975 3.01421C9.11355 2.27784 15.7172 0.628223 19.8766 0.628223C24.0439 0.628223 30.7601 2.28369 33.5285 3.01833C33.9702 3.13552 34.2789 3.53801 34.2789 4.0066V17.951C34.2789 18.3195 34.0918 18.6207 33.8085 18.7575C32.0231 19.6201 27.1961 21.5412 19.9094 21.3598C12.7196 21.1808 7.98564 19.507 6.1547 18.7286C5.84236 18.5958 5.63335 18.2771 5.63335 17.8877V4.00075Z" fill="#E5E5E5" stroke="#4D4D4D" stroke-width="1.25645" stroke-linecap="round" stroke-linejoin="round"/>
  <rect x="32.0392" y="3.14117" width="2.09408" height="15.915" fill="#FFDD00" stroke="#4D4D4D" stroke-width="0.418815"/>
  <rect x="6.07293" y="3.14117" width="2.09408" height="15.915" fill="#FFDD00" stroke="#4D4D4D" stroke-width="0.418815"/>
  <path d="M5.6541 4.00075C5.6541 3.53421 5.961 3.13259 6.4005 3.01421C9.1343 2.27784 15.7379 0.628223 19.8974 0.628223C24.0647 0.628223 30.7808 2.28369 33.5493 3.01833C33.9909 3.13552 34.2997 3.53801 34.2997 4.0066V17.9495C34.2997 18.3185 34.112 18.6202 33.828 18.7571C32.0379 19.6198 27.2003 21.5412 19.913 21.3598C12.7241 21.1808 8.00053 19.5074 6.17415 18.7291C5.86258 18.5963 5.6541 18.2781 5.6541 17.8893V4.00075Z" stroke="#4D4D4D" stroke-width="1.25645" stroke-linecap="round" stroke-linejoin="round"/>
  <path d="M9.63281 6.0564C9.63281 5.94735 9.7165 5.85656 9.82518 5.84768L19.8767 5.02715C19.8881 5.02622 19.8995 5.02622 19.9108 5.02715L29.9624 5.84768C30.0711 5.85656 30.1548 5.94735 30.1548 6.0564V6.47382C30.1548 6.59619 30.0503 6.69249 29.9283 6.68253L19.9108 5.86478C19.8995 5.86385 19.8881 5.86385 19.8767 5.86478L9.85926 6.68253C9.73729 6.69249 9.63281 6.59619 9.63281 6.47382V6.0564Z" fill="#828282"/>
  <rect x="9.63281" y="10.8892" width="20.5219" height="0.83763" rx="0.209408" fill="#828282"/>
  <path d="M9.63281 16.1421C9.63281 16.0197 9.73729 15.9234 9.85926 15.9334L19.8767 16.7512C19.8881 16.7521 19.8995 16.7521 19.9108 16.7512L29.9283 15.9334C30.0503 15.9234 30.1548 16.0197 30.1548 16.1421V16.5595C30.1548 16.6686 30.0711 16.7594 29.9624 16.7683L19.9108 17.5888C19.8995 17.5897 19.8881 17.5897 19.8767 17.5888L9.82518 16.7683C9.7165 16.7594 9.63281 16.6686 9.63281 16.5595V16.1421Z" fill="#828282"/>
</svg>
