<svg width="41" height="43" viewBox="0 0 41 43" fill="none" xmlns="http://www.w3.org/2000/svg">
  <path d="M14.8488 28.0101L10.5639 28.2957C8.67401 28.4217 7.00242 29.5662 6.20143 31.2826C4.98631 33.8864 6.11543 36.9821 8.72161 38.1921L15.7561 41.4582C17.2179 42.1369 18.8506 42.3582 20.4403 42.0933L27.644 40.8927C29.1811 40.6365 30.61 39.9369 31.7551 38.8799L34.7043 36.1576C35.8196 35.128 36.3184 33.5921 36.0207 32.1037C35.701 30.5048 34.5147 29.2185 32.9469 28.7705L28.7335 27.5667C28.5837 27.5239 28.4232 27.541 28.2857 27.6143L26.9953 28.3025C23.2689 30.2899 18.7788 30.2043 15.1309 28.0763C15.0456 28.0266 14.9474 28.0035 14.8488 28.0101Z" fill="#E5E5E5"/>
  <circle cx="21" cy="17" r="7.32" fill="#E5E5E5" stroke="#4D4D4D" stroke-width="1.36"/>
  <circle cx="21" cy="23" r="19.32" stroke="#4D4D4D" stroke-width="1.36"/>
  <path d="M36.5 34.5V34.5C37.2674 31.1747 34.7418 28 31.3292 28H27.1283C27.0443 28 26.9618 28.0223 26.8892 28.0647V28.0647C23.25 30.1875 18.75 30.1875 15.1108 28.0647V28.0647C15.0382 28.0223 14.9557 28 14.8717 28H10.6708C7.25815 28 4.73263 31.1747 5.5 34.5V34.5" stroke="#4D4D4D" stroke-width="1.36"/>
  <path d="M29.273 9.37298L26.693 8.08294C26.5457 8.00962 26.4143 7.90794 26.3064 7.78374C26.1985 7.65955 26.1162 7.51526 26.0642 7.35918C26.0121 7.2031 25.9914 7.03829 26.0032 6.8742C26.015 6.7101 26.0591 6.54991 26.133 6.40288C26.2546 6.16088 26.4509 5.96457 26.693 5.84295L29.273 4.55291C29.394 4.49209 29.4921 4.394 29.553 4.273L30.843 1.69292C30.9163 1.54564 31.0179 1.41435 31.1421 1.30645C31.2663 1.19854 31.4106 1.11616 31.5667 1.06414C31.7228 1.01211 31.8876 0.991417 32.0517 1.00322C32.2158 1.01503 32.3759 1.05915 32.523 1.13298C32.765 1.25461 32.9613 1.45092 33.083 1.69292L34.373 4.273C34.4338 4.394 34.532 4.49209 34.653 4.55291L37.233 5.84295C37.3802 5.91626 37.5116 6.01795 37.6195 6.14214C37.7274 6.26633 37.8097 6.41062 37.8618 6.5667C37.9138 6.72278 37.9345 6.88759 37.9227 7.05169C37.9109 7.21578 37.8668 7.37598 37.793 7.523C37.6713 7.765 37.475 7.96131 37.233 8.08294L34.653 9.37298C34.532 9.43379 34.4338 9.53188 34.373 9.65288L33.083 12.233C33.0096 12.3802 32.908 12.5115 32.7838 12.6194C32.6596 12.7273 32.5153 12.8097 32.3592 12.8617C32.2031 12.9138 32.0383 12.9345 31.8742 12.9227C31.7101 12.9109 31.55 12.8667 31.403 12.7929C31.161 12.6713 30.9646 12.475 30.843 12.233L29.553 9.65288C29.4921 9.53188 29.394 9.43379 29.273 9.37298Z" fill="#FFDD08"/>
  <path d="M29.273 9.37298L26.693 8.08294C26.5457 8.00962 26.4143 7.90794 26.3064 7.78374C26.1985 7.65955 26.1162 7.51526 26.0642 7.35918C26.0121 7.2031 25.9914 7.03829 26.0032 6.8742C26.015 6.7101 26.0591 6.54991 26.133 6.40288C26.2546 6.16088 26.4509 5.96457 26.693 5.84295L29.273 4.55291C29.394 4.49209 29.4921 4.394 29.553 4.273L30.843 1.69292C30.9163 1.54564 31.0179 1.41435 31.1421 1.30645C31.2663 1.19854 31.4106 1.11616 31.5667 1.06414C31.7228 1.01211 31.8876 0.991417 32.0517 1.00322C32.2158 1.01503 32.3759 1.05915 32.523 1.13298C32.765 1.25461 32.9613 1.45092 33.083 1.69292L34.373 4.273C34.4338 4.394 34.532 4.49209 34.653 4.55291L37.233 5.84295C37.3802 5.91626 37.5116 6.01795 37.6195 6.14214C37.7274 6.26633 37.8097 6.41062 37.8618 6.5667C37.9138 6.72278 37.9345 6.88759 37.9227 7.05169C37.9109 7.21578 37.8668 7.37598 37.793 7.523C37.6713 7.765 37.475 7.96131 37.233 8.08294L34.653 9.37298C34.532 9.43379 34.4338 9.53188 34.373 9.65288L33.083 12.233C33.0096 12.3802 32.908 12.5115 32.7838 12.6194C32.6596 12.7273 32.5153 12.8097 32.3592 12.8617C32.2031 12.9138 32.0383 12.9345 31.8742 12.9227C31.7101 12.9109 31.55 12.8667 31.403 12.7929C31.161 12.6713 30.9646 12.475 30.843 12.233L29.553 9.65288C29.4921 9.53188 29.394 9.43379 29.273 9.37298V9.37298Z" stroke="#4E4D4D" stroke-width="2" stroke-linejoin="bevel"/>
  <path d="M3.17903 36.569L1.46903 35.709C1.3696 35.66 1.28085 35.5919 1.20787 35.5085C1.13489 35.4251 1.07913 35.3282 1.04381 35.2231C1.00849 35.1181 0.994302 35.007 1.00206 34.8965C1.00982 34.7859 1.03937 34.678 1.08902 34.579C1.16993 34.416 1.30397 34.2855 1.46903 34.209L3.16902 33.349C3.24747 33.3108 3.31085 33.2474 3.34903 33.1689L4.20903 31.469C4.25797 31.3696 4.32609 31.2807 4.40949 31.2078C4.49288 31.1348 4.5899 31.0791 4.69493 31.0438C4.79997 31.0085 4.91096 30.9943 5.0215 31.0021C5.13205 31.0098 5.23995 31.0393 5.33902 31.089C5.50198 31.1699 5.6325 31.3039 5.70903 31.469L6.56903 33.1689C6.60721 33.2474 6.67058 33.3108 6.74903 33.349L8.44902 34.209C8.54845 34.2579 8.63721 34.326 8.71019 34.4094C8.78317 34.4928 8.83892 34.5898 8.87424 34.6948C8.90956 34.7998 8.92375 34.9109 8.91599 35.0215C8.90823 35.132 8.87868 35.2399 8.82903 35.339C8.74812 35.5019 8.61408 35.6324 8.44902 35.709L6.74903 36.569C6.67058 36.6071 6.60721 36.6706 6.56903 36.749L5.70903 38.449C5.66009 38.5484 5.59196 38.6372 5.50856 38.7102C5.42517 38.7832 5.32817 38.8388 5.22313 38.8741C5.1181 38.9095 5.00711 38.9236 4.89656 38.9159C4.78602 38.9081 4.6781 38.8786 4.57903 38.829C4.41607 38.7481 4.28557 38.614 4.20903 38.449L3.34903 36.749C3.31342 36.6721 3.25375 36.6089 3.17903 36.569Z" fill="#FFDD08"/>
  <path d="M3.17903 36.569L1.46903 35.709C1.3696 35.66 1.28085 35.5919 1.20787 35.5085C1.13489 35.4251 1.07913 35.3282 1.04381 35.2231C1.00849 35.1181 0.994302 35.007 1.00206 34.8965C1.00982 34.7859 1.03937 34.678 1.08902 34.579C1.16993 34.416 1.30397 34.2855 1.46903 34.209L3.16902 33.349C3.24747 33.3108 3.31085 33.2474 3.34903 33.1689L4.20903 31.469C4.25797 31.3696 4.32609 31.2807 4.40949 31.2078C4.49288 31.1348 4.5899 31.0791 4.69493 31.0438C4.79997 31.0085 4.91096 30.9943 5.0215 31.0021C5.13205 31.0098 5.23995 31.0393 5.33902 31.089C5.50198 31.1699 5.6325 31.3039 5.70903 31.469L6.56903 33.1689C6.60721 33.2474 6.67058 33.3108 6.74903 33.349L8.44902 34.209C8.54845 34.2579 8.63721 34.326 8.71019 34.4094C8.78317 34.4928 8.83892 34.5898 8.87424 34.6948C8.90956 34.7998 8.92375 34.9109 8.91599 35.0215C8.90823 35.132 8.87868 35.2399 8.82903 35.339C8.74812 35.5019 8.61408 35.6324 8.44902 35.709L6.74903 36.569C6.67058 36.6071 6.60721 36.6706 6.56903 36.749L5.70903 38.449C5.66009 38.5484 5.59196 38.6372 5.50856 38.7102C5.42517 38.7832 5.32817 38.8388 5.22313 38.8741C5.1181 38.9095 5.00711 38.9236 4.89656 38.9159C4.78602 38.9081 4.6781 38.8786 4.57903 38.829C4.41607 38.7481 4.28557 38.614 4.20903 38.449L3.34903 36.749C3.31342 36.6721 3.25375 36.6089 3.17903 36.569V36.569Z" stroke="#4E4D4D" stroke-width="2" stroke-linejoin="bevel"/>
</svg>
