<svg width="40" height="37" viewBox="0 0 40 37" fill="none" xmlns="http://www.w3.org/2000/svg">
  <path d="M2.60708 21.5049C2.60708 20.6671 3.28622 19.988 4.12398 19.988L35.8521 19.988C36.6898 19.988 37.369 20.6671 37.369 21.5049V32.6578C37.369 34.2998 36.0379 35.6309 34.3959 35.6309H5.58014C3.93817 35.6309 2.60708 34.2998 2.60708 32.6578L2.60708 21.5049Z" fill="#E5E5E5" stroke="#4D4D4D" stroke-width="1.73809"/>
  <path d="M0.869047 8.87339C0.869047 8.29238 1.34005 7.82138 1.92105 7.82138L38.0551 7.82138C38.6361 7.82138 39.1071 8.29238 39.1071 8.87338V22.4122C39.1071 22.9932 38.6361 23.4642 38.0551 23.4642L1.92105 23.4642C1.34005 23.4642 0.869047 22.9932 0.869047 22.4122L0.869047 8.87339Z" fill="#E5E5E5" stroke="#4D4D4D" stroke-width="1.73809"/>
  <path d="M11.2975 3.47613C11.2975 2.03624 12.4648 0.868986 13.9047 0.868986L26.0713 0.868986C27.5112 0.868986 28.6785 2.03625 28.6785 3.47613V7.82137L11.2975 7.82137V3.47613Z" fill="#E5E5E5" stroke="#4D4D4D" stroke-width="1.73809"/>
  <mask id="path-4-inside-1_2131_74100" fill="white">
    <path d="M13.9048 3.99756C13.9048 3.70959 14.1382 3.47614 14.4262 3.47614L25.55 3.47614C25.838 3.47614 26.0715 3.70959 26.0715 3.99756V8.69042H13.9048V3.99756Z"/>
  </mask>
  <path d="M13.9048 3.99756C13.9048 3.70959 14.1382 3.47614 14.4262 3.47614L25.55 3.47614C25.838 3.47614 26.0715 3.70959 26.0715 3.99756V8.69042H13.9048V3.99756Z" fill="white" stroke="#4D4D4D" stroke-width="3.47619" mask="url(#path-4-inside-1_2131_74100)"/>
  <mask id="path-5-inside-2_2131_74100" fill="white">
    <rect x="17.3809" y="20.8571" width="5.21428" height="6.95238" rx="1.59063"/>
  </mask>
  <rect x="17.3809" y="20.8571" width="5.21428" height="6.95238" rx="1.59063" fill="#FFDD00" stroke="#4D4D4D" stroke-width="3.47619" mask="url(#path-5-inside-2_2131_74100)"/>
</svg>
