<svg width="54" height="40" viewBox="0 0 54 40" fill="none" xmlns="http://www.w3.org/2000/svg">
  <rect x="3.59066" y="32.2569" width="3.70833" height="6.59722" rx="1.85417" fill="#E5E5E5" stroke="#4D4D4D" stroke-width="2.29167"/>
  <rect x="28.7015" y="32.2569" width="3.70833" height="6.59722" rx="1.85417" fill="#E5E5E5" stroke="#4D4D4D" stroke-width="2.29167"/>
  <path d="M9.11155 1.11111H26.8893C31.1849 1.11111 34.6671 4.59334 34.6671 8.88889V28.8889C34.6671 31.9571 32.1798 34.4444 29.1115 34.4444H6.88933C3.82108 34.4444 1.33377 31.9571 1.33377 28.8889V8.88889C1.33377 4.59334 4.816 1.11111 9.11155 1.11111Z" fill="#E5E5E5" stroke="#4D4D4D" stroke-width="2.22222"/>
  <path d="M9.11144 7.77786H26.8892C28.7302 7.77786 30.2225 9.27024 30.2225 11.1112V18.889H5.7781V11.1112C5.7781 9.27024 7.27049 7.77786 9.11144 7.77786Z" fill="white" stroke="#4D4D4D" stroke-width="2.22222"/>
  <path d="M30.1872 26.3333C30.1872 27.3573 29.357 28.1874 28.333 28.1874C27.309 28.1874 26.4788 27.3573 26.4788 26.3333C26.4788 25.3092 27.309 24.4791 28.333 24.4791C29.357 24.4791 30.1872 25.3092 30.1872 26.3333Z" fill="#FFDD00" stroke="#4D4D4D" stroke-width="2.29167"/>
  <path d="M9.52116 26.3333C9.52116 27.3573 8.69102 28.1874 7.66699 28.1874C6.64296 28.1874 5.81283 27.3573 5.81283 26.3333C5.81283 25.3092 6.64296 24.4791 7.66699 24.4791C8.69102 24.4791 9.52116 25.3092 9.52116 26.3333Z" fill="#FFDD00" stroke="#4D4D4D" stroke-width="2.29167"/>
  <path d="M25.0556 32.5C25.0556 35.1765 22.7791 37.5 19.7778 37.5C16.7765 37.5 14.5 35.1765 14.5 32.5C14.5 29.8235 16.7765 27.5 19.7778 27.5C22.7791 27.5 25.0556 29.8235 25.0556 32.5Z" stroke="#DDDDDD" stroke-width="5"/>
  <path d="M26.3056 32.5C26.3056 35.9093 23.4262 38.75 19.7778 38.75C16.1293 38.75 13.25 35.9093 13.25 32.5C13.25 29.0907 16.1293 26.25 19.7778 26.25C23.4262 26.25 26.3056 29.0907 26.3056 32.5Z" stroke="#4D4D4D" stroke-width="2.5"/>
  <path d="M51.5004 32.5C51.5004 35.1765 49.2239 37.5 46.2226 37.5C43.2213 37.5 40.9448 35.1765 40.9448 32.5C40.9448 29.8235 43.2213 27.5 46.2226 27.5C49.2239 27.5 51.5004 29.8235 51.5004 32.5Z" stroke="#E6E6E6" stroke-width="5"/>
  <path d="M52.7504 32.5C52.7504 35.9093 49.871 38.75 46.2226 38.75C42.5742 38.75 39.6948 35.9093 39.6948 32.5C39.6948 29.0907 42.5742 26.25 46.2226 26.25C49.871 26.25 52.7504 29.0907 52.7504 32.5Z" stroke="#4D4D4D" stroke-width="2.5"/>
  <path d="M25.9996 21.25L19.7773 32.5H30.6662M25.9996 21.25H39.9996M25.9996 21.25L30.6662 32.5M25.9996 21.25V17.5M39.9996 21.25L40.7773 22.75M39.9996 21.25V19H40.7773M46.2218 32.5L40.7773 22.75M40.7773 22.75L30.6662 32.5" stroke="#4D4D4D" stroke-width="2.5" stroke-linecap="round" stroke-linejoin="round"/>
  <ellipse cx="31.4447" cy="33.25" rx="2.33333" ry="2.25" fill="#FFDD00"/>
  <rect x="24.4448" y="16" width="7.77778" height="3" rx="1.5" fill="#828282"/>
  <path d="M44.6662 19H40.7773" stroke="#828282" stroke-width="2.5"/>
  <path d="M31.4447 33.25V37H29.8892H33.0003" stroke="#4D4D4D" stroke-width="2.5" stroke-linecap="round" stroke-linejoin="round"/>
  <path d="M43.1108 22C43.1108 22 45.4442 22 44.6664 19" stroke="#828282" stroke-width="2.5" stroke-linecap="round" stroke-linejoin="round"/>
</svg>
