<svg width="40" height="40" viewBox="0 0 40 40" fill="none" xmlns="http://www.w3.org/2000/svg">
  <path d="M7.26548 22.0326C7.38888 21.6933 7.71139 21.4674 8.07247 21.4674H31.4275C31.7886 21.4674 32.1111 21.6933 32.2345 22.0326L37.8551 37.4892C38.0587 38.0492 37.644 38.6413 37.0481 38.6413H2.45192C1.85602 38.6413 1.44128 38.0492 1.64492 37.4892L7.26548 22.0326Z" fill="#C7E6B8" stroke="#4D4D4D" stroke-width="1.71739" stroke-linecap="round" stroke-linejoin="round"/>
  <path d="M25.761 30.913V37.7826H36.924L33.4892 26.6196L25.761 30.913Z" fill="#B7E9FF"/>
  <path d="M15.4565 31.7718L7.72827 37.7826H24.0435V30.9131L19.75 28.337L15.4565 31.7718Z" fill="#E5E5E5"/>
  <path d="M6.01099 38.6413L19.7501 27.4783" stroke="#FFDD00" stroke-width="1.71739"/>
  <path d="M12.0217 21.4674L24.9022 30.9131M24.9022 30.9131L34.3478 25.7609M24.9022 30.9131V38.6413" stroke="white" stroke-width="1.71739"/>
  <path d="M7.26548 22.0326C7.38888 21.6933 7.71139 21.4674 8.07247 21.4674H31.4275C31.7886 21.4674 32.1111 21.6933 32.2345 22.0326L37.8551 37.4892C38.0587 38.0492 37.644 38.6413 37.0481 38.6413H2.45192C1.85602 38.6413 1.44128 38.0492 1.64492 37.4892L7.26548 22.0326Z" stroke="#4D4D4D" stroke-width="1.71739" stroke-linecap="round" stroke-linejoin="round"/>
  <path d="M26.5767 25.9423C26.1537 26.4858 25.3681 26.4858 24.9451 25.9423C23.5257 24.1186 21.3459 21.1887 19.5251 18.1879C18.6145 16.6871 17.8037 15.185 17.223 13.806C16.6355 12.4109 16.3152 11.2149 16.3152 10.3043C16.3152 5.08766 20.5442 0.858696 25.7609 0.858696C30.9776 0.858696 35.2065 5.08766 35.2065 10.3043C35.2065 11.2149 34.8863 12.4109 34.2988 13.806C33.7181 15.185 32.9073 16.6871 31.9967 18.1879C30.1759 21.1887 27.9961 24.1186 26.5767 25.9423Z" fill="#E5E5E5" stroke="#4D4D4D" stroke-width="1.71739"/>
  <path d="M29.381 10.5072C29.381 12.5062 27.7604 14.1268 25.7613 14.1268C23.7622 14.1268 22.1417 12.5062 22.1417 10.5072C22.1417 8.50808 23.7622 6.8875 25.7613 6.8875C27.7604 6.8875 29.381 8.50808 29.381 10.5072Z" fill="#FFDD00" stroke="#4D4D4D" stroke-width="1.71739"/>
</svg>
