<svg width="40" height="29" viewBox="0 0 40 29" fill="none" xmlns="http://www.w3.org/2000/svg">
  <mask id="path-1-inside-1_2131_74045" fill="white">
    <path d="M36.1902 0C38.2943 0 40 1.70571 40 3.8098V24.7637C40 26.8678 38.2943 28.5735 36.1902 28.5735L3.8098 28.5735C1.70571 28.5735 0 26.8678 0 24.7637V3.8098C0 1.70571 1.7057 0 3.8098 0L36.1902 0Z"/>
  </mask>
  <path d="M36.1902 0C38.2943 0 40 1.70571 40 3.8098V24.7637C40 26.8678 38.2943 28.5735 36.1902 28.5735L3.8098 28.5735C1.70571 28.5735 0 26.8678 0 24.7637V3.8098C0 1.70571 1.7057 0 3.8098 0L36.1902 0Z" fill="white"/>
  <path d="M38.1816 3.8098V24.7637H41.8184V3.8098H38.1816ZM36.1902 26.7551L3.8098 26.7551V30.3919L36.1902 30.3919V26.7551ZM1.81838 24.7637V3.8098L-1.81838 3.8098V24.7637H1.81838ZM3.8098 1.81838L36.1902 1.81838V-1.81838L3.8098 -1.81838V1.81838ZM1.81838 3.8098C1.81838 2.70997 2.70997 1.81838 3.8098 1.81838V-1.81838C0.701443 -1.81838 -1.81838 0.701445 -1.81838 3.8098L1.81838 3.8098ZM3.8098 26.7551C2.70997 26.7551 1.81838 25.8635 1.81838 24.7637H-1.81838C-1.81838 27.8721 0.701443 30.3919 3.8098 30.3919V26.7551ZM38.1816 24.7637C38.1816 25.8635 37.29 26.7551 36.1902 26.7551V30.3919C39.2986 30.3919 41.8184 27.872 41.8184 24.7637H38.1816ZM41.8184 3.8098C41.8184 0.701441 39.2986 -1.81838 36.1902 -1.81838V1.81838C37.29 1.81838 38.1816 2.70997 38.1816 3.8098H41.8184Z" fill="#4D4D4D" mask="url(#path-1-inside-1_2131_74045)"/>
  <rect x="5.71289" y="15.2391" width="15.2392" height="1.9049" rx="0.95245" fill="#4D4D4D"/>
  <rect x="5.71289" y="19.049" width="20.9539" height="1.9049" rx="0.95245" fill="#4D4D4D"/>
  <rect x="5.71289" y="19.049" width="20.9539" height="1.9049" rx="0.95245" fill="#4D4D4D"/>
  <path d="M7.02206 7.46302L8.10715 0.95245H14.1131L12.9758 7.77618C12.8992 8.23544 12.5019 8.57205 12.0363 8.57205H7.96155C7.37299 8.57205 6.9253 8.04357 7.02206 7.46302Z" fill="#FFDD00" stroke="#4D4D4D" stroke-width="1.9049"/>
  <rect x="28.5713" y="3.80981" width="7.6196" height="7.6196" rx="1.9049" fill="#E5E5E5"/>
  <mask id="mask0_2131_74045" style="mask-type:alpha" maskUnits="userSpaceOnUse" x="28" y="3" width="9" height="9">
    <rect x="28.5713" y="3.80981" width="7.6196" height="7.6196" rx="1.9049" fill="#DDDDDD"/>
  </mask>
  <g mask="url(#mask0_2131_74045)">
    <circle cx="32.3813" cy="7.1434" r="1.42867" fill="#828282"/>
    <circle cx="32.3808" cy="12.3819" r="2.85735" fill="#828282"/>
  </g>
</svg>
